{
.appVersion = "3148";
.formatVersion = 3;
DisplayStrings = (
"Conservas
Cannegry",
C,
Q,
Qj,
"Hi-~how ",
"-~=",
"ttn][{})(heelo",
""
);
date = "2022-10-13 19:52:38 +0000";
familyName = "New Font";
featurePrefixes = (
{
automatic = 1;
code = "languagesystem DFLT dflt;
";
name = Languagesystems;
}
);
features = (
{
automatic = 1;
code = "feature onum;
feature case;
";
tag = aalt;
},
{
automatic = 1;
code = "sub zero by zero.osf;
sub one by one.osf;
sub two by two.osf;
sub three by three.osf;
sub four by four.osf;
sub five by five.osf;
sub six by six.osf;
sub seven by seven.osf;
sub eight by eight.osf;
sub nine by nine.osf;
";
tag = onum;
},
{
automatic = 1;
code = "sub zero.osf by zero;
sub one.osf by one;
sub two.osf by two;
sub three.osf by three;
sub four.osf by four;
sub five.osf by five;
sub six.osf by six;
sub seven.osf by seven;
sub eight.osf by eight;
sub nine.osf by nine;
";
tag = case;
},
{
automatic = 1;
code = "lookupflag IgnoreMarks;
sub a e by a_e;
sub f t by f_t;
";
tag = dlig;
},
{
automatic = 1;
code = "lookupflag IgnoreMarks;
sub f f i by f_f_i;
sub f f l by f_f_l;
sub f f by f_f;
sub f i by f_i;
sub f l by f_l;
";
tag = liga;
}
);
fontMaster = (
{
id = m01;
metricValues = (
{
over = 16;
pos = 800;
},
{
over = 16;
pos = 700;
},
{
over = 16;
pos = 435;
},
{
over = -16;
},
{
over = -16;
pos = -200;
},
{
}
);
name = Regular;
visible = 1;
}
);
glyphs = (
{
glyphname = A;
lastChange = "2022-11-27 03:52:30 +0000";
layers = (
{
hints = (
{
name = _corner.leftSerif;
origin = (0,3);
type = Corner;
},
{
name = _corner.leftSerif;
origin = (0,15);
scale = (0.8,1);
type = Corner;
},
{
name = _corner.rightSerif;
options = 1;
origin = (0,0);
type = Corner;
},
{
name = _corner.rightSerif;
options = 1;
origin = (0,4);
scale = (0.8,1);
type = Corner;
}
);
layerId = m01;
shapes = (
{
closed = 1;
nodes = (
(174,0,l),
(252,224,l),
(488,224,l),
(559,0,l),
(659,0,l),
(421,705,ls),
(418,715,o),
(389,715,o),
(373,720,cs),
(367,722,o),
(359,720,o),
(363,714,cs),
(367,708,o),
(360,692,o),
(359,689,cs),
(118,0,l)
);
},
{
closed = 1;
nodes = (
(376,577,l),
(474,267,l),
(268,267,l)
);
}
);
width = 782;
}
);
metricLeft = O;
metricRight = O;
unicode = 65;
},
{
glyphname = B;
lastChange = "2022-11-18 16:04:32 +0000";
layers = (
{
layerId = m01;
shapes = (
{
closed = 1;
nodes = (
(445,0,ls),
(535,0,o),
(634,96,o),
(634,173,qs),
(634,237,o),
(583,322,o),
(519,362,o),
(503,362,q),
(516,362,o),
(560,401,o),
(593,472,o),
(593,519,qs),
(593,568,o),
(544,651,o),
(461,700,o),
(412,700,qs),
(125,700,l),
(125,0,l)
);
},
{
pos = (125,0);
ref = SerifBottomLeft;
},
{
closed = 1;
nodes = (
(268,42,o),
(233,55,o),
(222,84,o),
(222,115,qs),
(222,296,ls),
(222,317,o),
(225,330,o),
(237,333,o),
(256,333,qs),
(379,333,ls),
(446,333,o),
(537,248,o),
(537,163,qs),
(537,115,o),
(482,42,o),
(435,42,qs),
(306,42,ls)
);
},
{
angle = 180;
pos = (125,700);
ref = SerifBottomRight;
},
{
closed = 1;
nodes = (
(234,375,o),
(225,376,o),
(222,390,o),
(222,412,qs),
(222,577,ls),
(222,612,o),
(233,645,o),
(268,658,o),
(306,658,qs),
(363,658,ls),
(499,658,o),
(499,511,qs),
(499,459,o),
(452,375,o),
(412,375,qs),
(256,375,ls)
);
}
);
width = 679;
}
);
metricLeft = H;
metricRight = O;
unicode = 66;
},
{
glyphname = C;
lastChange = "2022-12-01 19:56:16 +0000";
layers = (
{
layerId = m01;
shapes = (
{
closed = 1;
nodes = (
(536,-15,o),
(604,68,o),
(638,105,c),
(604,120,l),
(568,81,o),
(512,33,o),
(406,33,cs),
(262,33,o),
(177,152,o),
(177,331,cs),
(177,549,o),
(288,673,o),
(401,673,cs),
(474,673,o),
(575,643,o),
(575,542,c),
(602,542,l),
(602,577,o),
(600,683,o),
(600,716,c),
(573,716,l),
(573,687,o),
(569,676,o),
(555,676,cs),
(535,676,o),
(498,715,o),
(381,715,cs),
(227,715,o),
(45,578,o),
(45,342,cs),
(45,139,o),
(193,-15,o),
(382,-15,cs)
);
}
);
width = 658;
}
);
metricLeft = O;
metricRight = H;
unicode = 67;
},
{
glyphname = D;
lastChange = "2022-11-18 02:46:37 +0000";
layers = (
{
layerId = m01;
shapes = (
{
closed = 1;
nodes = (
(221,0,l),
(390,0,l),
(511,0,o),
(680,158,o),
(680,351,c),
(680,543,o),
(536,700,o),
(366,700,c),
(331,700,l),
(221,700,l),
(185,700,l),
(125,700,l),
(125,0,l)
);
},
{
closed = 1;
nodes = (
(233,37,o),
(221,61,o),
(221,122,c),
(221,592,l),
(221,652,o),
(233,665,o),
(306,665,c),
(331,665,l),
(499,665,o),
(573,493,o),
(573,341,cs),
(573,165,o),
(479,37,o),
(355,37,c),
(306,37,l)
);
},
{
angle = 180;
pos = (125,700);
ref = SerifBottomRight;
},
{
pos = (125,0);
ref = SerifBottomLeft;
}
);
width = 725;
}
);
metricLeft = H;
metricRight = O;
unicode = 68;
},
{
glyphname = E;
lastChange = "2022-11-26 05:26:49 +0000";
layers = (
{
layerId = m01;
shapes = (
{
closed = 1;
nodes = (
(612,0,l),
(612,76,o),
(617,86,o),
(622,191,c),
(595,191,l),
(595,111,o),
(552,42,o),
(462,42,cs),
(306,42,ls),
(235,42,o),
(222,63,o),
(222,121,cs),
(222,302,ls),
(222,342,o),
(222,342,o),
(262,342,cs),
(278,342,ls),
(361,342,o),
(425,308,o),
(427,258,c),
(454,258,l),
(454,308,o),
(452,317,o),
(452,342,cs),
(452,384,ls),
(452,409,o),
(454,419,o),
(454,467,c),
(427,467,l),
(425,419,o),
(361,384,o),
(278,384,cs),
(262,384,ls),
(222,384,o),
(222,384,o),
(222,425,cs),
(222,625,ls),
(222,647,o),
(228,658,o),
(253,658,cs),
(471,658,l),
(471,700,l),
(125,700,l),
(125,0,l)
);
},
{
pos = (125,0);
ref = SerifBottomLeft;
},
{
angle = 180;
pos = (125,700);
ref = SerifBottomRight;
},
{
pos = (471,700);
ref = SerifDownEF;
}
);
width = 642;
}
);
metricLeft = H;
metricRight = H;
unicode = 69;
},
{
glyphname = F;
lastChange = "2022-11-26 01:04:33 +0000";
layers = (
{
layerId = m01;
shapes = (
{
pos = (455,700);
ref = SerifDownEF;
},
{
pos = (125,0);
ref = SerifBottomLeft;
},
{
angle = 180;
pos = (125,700);
ref = SerifBottomRight;
},
{
pos = (219,0);
ref = SerifBottomRight;
},
{
closed = 1;
nodes = (
(358,342,o),
(422,308,o),
(424,258,c),
(451,258,l),
(451,308,o),
(449,317,o),
(449,342,cs),
(449,384,ls),
(449,409,o),
(451,419,o),
(451,467,c),
(424,467,l),
(422,419,o),
(358,384,o),
(275,384,cs),
(259,384,ls),
(219,384,o),
(219,384,o),
(219,425,cs),
(219,583,l),
(219,641,o),
(232,658,o),
(304,658,cs),
(455,658,l),
(455,700,l),
(125,700,l),
(125,103,l),
(125,0,l),
(219,0,l),
(219,302,ls),
(219,342,o),
(219,342,o),
(259,342,cs),
(275,342,ls)
);
}
);
width = 602;
}
);
metricLeft = H;
metricRight = H;
unicode = 70;
},
{
glyphname = G;
lastChange = "2022-11-18 17:05:58 +0000";
layers = (
{
layerId = m01;
shapes = (
{
closed = 1;
nodes = (
(578,627,o),
(578,522,c),
(605,522,l),
(605,557,o),
(603,667,o),
(603,700,c),
(576,700,l),
(576,671,o),
(572,665,o),
(549,665,cs),
(504,665,o),
(487,715,o),
(378,715,cs),
(204,715,o),
(45,545,o),
(45,341,cs),
(45,142,o),
(198,-16,o),
(375,-16,cs),
(508,-16,o),
(523,17,o),
(558,18,cs),
(566,18,o),
(577,16,o),
(593,11,c),
(593,200,ls),
(593,219,o),
(593,243,o),
(628,243,c),
(628,270,l),
(426,270,l),
(426,243,l),
(496,243,o),
(497,225,o),
(497,189,cs),
(497,93,ls),
(497,69,o),
(472,26,o),
(391,26,cs),
(247,26,o),
(156,155,o),
(156,330,cs),
(156,469,o),
(222,672,o),
(378,672,cs),
(483,672,o)
);
}
);
width = 673;
}
);
metricLeft = O;
metricRight = O;
unicode = 71;
},
{
glyphname = H;
lastChange = "2022-11-18 02:37:29 +0000";
layers = (
{
layerId = m01;
shapes = (
{
closed = 1;
nodes = (
(222,0,l),
(222,301,l),
(222,344,o),
(222,344,o),
(258,344,cs),
(559,344,ls),
(595,344,o),
(595,344,o),
(595,301,cs),
(595,0,l),
(692,0,l),
(692,700,l),
(595,700,l),
(595,422,l),
(595,386,o),
(595,386,o),
(559,386,cs),
(258,386,ls),
(222,386,o),
(222,386,o),
(222,422,c),
(222,700,l),
(125,700,l),
(125,0,l)
);
},
{
pos = (125,0);
ref = SerifBottomLeft;
},
{
pos = (692,0);
ref = SerifBottomRight;
},
{
pos = (222,0);
ref = SerifBottomRight;
},
{
pos = (595,0);
ref = SerifBottomLeft;
},
{
angle = 180;
pos = (125,700);
ref = SerifBottomRight;
},
{
angle = 180;
pos = (595,700);
ref = SerifBottomRight;
},
{
angle = 180;
pos = (222,700);
ref = SerifBottomLeft;
},
{
angle = 180;
pos = (692,700);
ref = SerifBottomLeft;
}
);
width = 808;
}
);
metricLeft = H;
metricRight = H;
unicode = 72;
},
{
glyphname = I;
lastChange = "2022-11-18 02:40:54 +0000";
layers = (
{
layerId = m01;
shapes = (
{
closed = 1;
nodes = (
(223,700,l),
(125,700,l),
(125,0,l),
(223,0,l)
);
},
{
pos = (223,0);
ref = SerifBottomRight;
},
{
angle = 180;
pos = (125,700);
ref = SerifBottomRight;
},
{
pos = (125,0);
ref = SerifBottomLeft;
},
{
angle = 180;
pos = (223,700);
ref = SerifBottomLeft;
}
);
width = 339;
}
);
metricLeft = H;
metricRight = H;
unicode = 73;
},
{
glyphname = J;
lastChange = "2022-11-18 15:27:25 +0000";
layers = (
{
layerId = m01;
shapes = (
{
angle = 180;
pos = (360,700);
ref = SerifBottomLeft;
},
{
angle = 180;
pos = (263,700);
ref = SerifBottomRight;
},
{
closed = 1;
nodes = (
(263,-139,o),
(253,-176,o),
(188,-176,cs),
(150,-176,o),
(125,-145,o),
(120,-114,cs),
(117,-84,o),
(101,-60,o),
(70,-65,cs),
(45,-68,o),
(27,-89,o),
(29,-115,cs),
(37,-173,o),
(118,-221,o),
(194,-221,cs),
(286,-221,o),
(360,-177,o),
(360,-69,cs),
(360,700,l),
(263,700,l),
(263,-86,ls)
);
}
);
width = 476;
}
);
metricLeft = H;
metricRight = H;
unicode = 74;
},
{
glyphname = K;
lastChange = "2022-11-18 15:29:07 +0000";
layers = (
{
annotations = (
{
pos = (85,268);
text = "watch width here ";
type = Text;
},
{
pos = (97,294);
type = Arrow;
}
);
hints = (
{
name = _corner.leftSerif;
origin = (0,12);
type = Corner;
},
{
name = _corner.rightSerif;
options = 1;
origin = (0,13);
type = Corner;
},
{
name = _corner.rightSerif;
options = 1;
origin = (0,10);
scale = (0.7,1);
type = Corner;
}
);
layerId = m01;
shapes = (
{
closed = 1;
nodes = (
(222,0,l),
(222,225,l),
(293,320,l),
(412,166,l),
(496,56,o),
(496,46,o),
(515,7,cs),
(517,3,o),
(517,0,o),
(535,0,c),
(661,0,l),
(359,389,l),
(605,700,l),
(551,700,l),
(222,293,l),
(222,700,l),
(125,700,l),
(125,0,l)
);
},
{
pos = (222,0);
ref = SerifBottomRight;
},
{
angle = 180;
pos = (125,700);
ref = SerifBottomRight;
},
{
angle = 180;
pos = (222,700);
ref = SerifBottomLeft;
},
{
pos = (125,0);
ref = SerifBottomLeft;
}
);
width = 775;
}
);
metricLeft = H;
metricRight = O;
unicode = 75;
},
{
glyphname = L;
lastChange = "2022-11-26 00:59:48 +0000";
layers = (
{
layerId = m01;
shapes = (
{
closed = 1;
nodes = (
(612,0,l),
(612,76,o),
(617,86,o),
(622,191,c),
(595,191,l),
(595,111,o),
(552,42,o),
(462,42,cs),
(306,42,ls),
(235,42,o),
(222,63,o),
(222,121,c),
(222,700,l),
(125,700,l),
(125,0,l)
);
},
{
pos = (125,0);
ref = SerifBottomLeft;
},
{
angle = 180;
pos = (125,700);
ref = SerifBottomRight;
},
{
angle = 180;
pos = (222,700);
ref = SerifBottomLeft;
}
);
width = 642;
}
);
metricLeft = H;
metricRight = H;
unicode = 76;
},
{
glyphname = M;
lastChange = "2022-11-18 02:43:02 +0000";
layers = (
{
layerId = m01;
shapes = (
{
closed = 1;
nodes = (
(474,-2,l),
(709,583,l),
(709,0,l),
(805,0,l),
(805,700,l),
(698,700,l),
(474,115,l),
(234,700,l),
(125,700,l),
(125,0,l),
(167,0,l),
(167,603,l),
(421,-2,l)
);
},
{
pos = (125,0);
ref = SerifBottomLeft;
},
{
pos = (167,0);
ref = SerifBottomRight;
},
{
pos = (709,0);
ref = SerifBottomLeft;
},
{
angle = 180;
pos = (125,700);
ref = SerifBottomRight;
},
{
pos = (795,0);
ref = SerifBottomRight;
},
{
angle = 180;
pos = (795,700);
ref = SerifBottomLeft;
}
);
width = 911;
}
);
metricLeft = H;
metricRight = H;
unicode = 77;
},
{
glyphname = N;
lastChange = "2022-11-18 18:19:29 +0000";
layers = (
{
hints = (
{
name = _corner.rightSerif;
options = 1;
origin = (0,6);
scale = (0.68,1);
type = Corner;
}
);
layerId = m01;
shapes = (
{
closed = 1;
nodes = (
(611,0,l),
(653,0,l),
(653,700,l),
(611,700,l),
(611,157,l),
(216,700,l),
(101,700,l),
(125,666,l),
(125,0,l),
(167,0,l),
(167,610,l)
);
},
{
pos = (125,0);
ref = SerifBottomLeft;
},
{
pos = (167,0);
ref = SerifBottomRight;
},
{
angle = 180;
pos = (653,700);
ref = SerifBottomLeft;
},
{
angle = 180;
pos = (611,700);
ref = SerifBottomRight;
}
);
width = 769;
}
);
metricLeft = H;
metricRight = H;
unicode = 78;
},
{
glyphname = O;
lastChange = "2022-11-26 21:42:51 +0000";
layers = (
{
layerId = m01;
shapes = (
{
attr = {
fill = 1;
};
closed = 1;
nodes = (
(580,-16,o),
(733,153,o),
(733,356,cs),
(733,562,o),
(580,716,o),
(389,716,cs),
(198,716,o),
(45,548,o),
(45,356,cs),
(45,139,o),
(198,-16,o),
(389,-16,cs)
);
},
{
attr = {
fill = 1;
};
closed = 1;
nodes = (
(261,10,o),
(170,153,o),
(159,345,cs),
(147,525,o),
(224,667,o),
(362,679,cs),
(517,691,o),
(608,548,o),
(619,367,cs),
(631,189,o),
(554,34,o),
(416,23,cs)
);
}
);
width = 778;
}
);
unicode = 79;
},
{
glyphname = P;
lastChange = "2022-11-18 02:48:33 +0000";
layers = (
{
layerId = m01;
shapes = (
{
closed = 1;
nodes = (
(125,0,l),
(222,0,l),
(222,264,l),
(222,288,o),
(234,296,o),
(257,296,c),
(354,296,ls),
(545,296,o),
(596,398,o),
(596,495,cs),
(596,627,o),
(511,700,o),
(415,700,c),
(125,700,l)
);
},
{
closed = 1;
nodes = (
(234,338,o),
(225,348,o),
(225,361,c),
(225,631,l),
(225,653,o),
(231,658,o),
(257,658,c),
(366,658,l),
(464,658,o),
(511,591,o),
(511,520,cs),
(511,431,o),
(473,374,o),
(415,351,cs),
(395,343,o),
(375,338,o),
(349,338,c),
(313,338,o),
(286,338,o),
(257,338,c)
);
},
{
pos = (125,0);
ref = SerifBottomLeft;
},
{
pos = (222,0);
ref = SerifBottomRight;
},
{
angle = 180;
pos = (125,700);
ref = SerifBottomRight;
}
);
width = 641;
}
);
metricLeft = H;
metricRight = O;
unicode = 80;
},
{
glyphname = Q;
lastChange = "2022-12-01 23:56:56 +0000";
layers = (
{
layerId = m01;
shapes = (
{
closed = 1;
nodes = (
(242,22,o),
(165,161,o),
(154,345,cs),
(153,357,o),
(153,369,o),
(153,382,cs),
(153,542,o),
(230,680,o),
(363,680,cs),
(495,680,o),
(573,540,o),
(584,369,cs),
(585,355,o),
(586,341,o),
(586,327,cs),
(586,158,o),
(508,22,o),
(374,22,cs)
);
},
{
closed = 0;
nodes = (
(-35,499,l)
);
},
{
closed = 1;
nodes = (
(598,52,o),
(692,185,o),
(692,357,c),
(704,561,o),
(548,716,o),
(369,716,cs),
(188,716,o),
(46,548,o),
(46,357,c),
(33,153,o),
(157,9,o),
(324,-14,c),
(251,-45,o),
(231,-56,o),
(231,-72,cs),
(231,-82,o),
(237,-89,o),
(249,-89,cs),
(280,-89,o),
(288,-49,o),
(330,-49,cs),
(364,-49,o),
(399,-75,o),
(437,-99,cs),
(474,-124,o),
(548,-153,o),
(599,-153,cs),
(662,-153,o),
(714,-112,o),
(714,-48.5,cs),
(714,-44.167,o),
(714,-39.333,o),
(714,-34,c),
(697,-33,l),
(665,-83,o),
(628,-85,o),
(587,-85,cs),
(546,-85,o),
(497,-68,o),
(463,-46,cs),
(441,-33,o),
(430,-27,o),
(430,-22,cs),
(430,-16,o),
(439,-8,o),
(461,0,cs)
);
}
);
width = 759;
}
);
metricLeft = O;
metricRight = O;
unicode = 81;
},
{
glyphname = R;
lastChange = "2022-11-18 16:58:20 +0000";
layers = (
{
hints = (
{
name = _corner.rightSerif;
options = 1;
origin = (4,9);
scale = (0.8,1);
type = Corner;
}
);
layerId = m01;
shapes = (
{
closed = 1;
nodes = (
(222,373,o),
(222,373,o),
(222,399,c),
(222,591,l),
(222,660,o),
(235,664,o),
(304,664,cs),
(365,664,ls),
(448,664,o),
(510,614,o),
(510,543,cs),
(510,482,o),
(474,410,o),
(402,384,cs),
(365,373,o),
(328,373,o),
(328,373,c),
(256,373,ls)
);
},
{
pos = (125,0);
ref = SerifBottomLeft;
},
{
pos = (222,0);
ref = SerifBottomRight;
},
{
angle = 180;
pos = (125,700);
ref = SerifBottomRight;
},
{
closed = 1;
nodes = (
(354,331,o),
(410,221,o),
(452,166,c),
(536,56,o),
(536,46,o),
(555,7,cs),
(557,3,o),
(557,0,o),
(575,0,c),
(701,0,l),
(426,351,l),
(517,352,o),
(594,436,o),
(594,518,cs),
(594,649,o),
(490,700,o),
(412,700,cs),
(125,700,l),
(125,0,l),
(222,0,l),
(222,320,ls),
(222,328,o),
(227,331,o),
(239,331,cs),
(306,331,l)
);
}
);
width = 824;
}
);
metricLeft = H;
metricRight = O;
tags = (
"Clean up"
);
unicode = 82;
},
{
color = 0;
glyphname = S;
lastChange = "2022-12-01 19:41:32 +0000";
layers = (
{
layerId = m01;
shapes = (
{
closed = 1;
nodes = (
(191,22,o),
(72,107,o),
(72,212,c),
(45,212,l),
(45,170,o),
(45,41,o),
(45,0,c),
(72,0,l),
(72,32,o),
(82,56,o),
(98,56,cs),
(120,56,o),
(188,-16,o),
(343,-16,cs),
(424,-16,o),
(554,26,o),
(554,165,cs),
(554,266,o),
(495,289,o),
(412,349,cs),
(259,460,ls),
(202,502,o),
(176,545,o),
(176,575,cs),
(176,631,o),
(217,678,o),
(286,678,cs),
(398,678,o),
(468,601,o),
(468,501,c),
(495,501,l),
(495,543,o),
(495,678,o),
(495,718,c),
(468,718,l),
(468,689,o),
(445,685,o),
(432,685,cs),
(413,685,o),
(382,716,o),
(281,716,cs),
(148,716,o),
(69,609,o),
(69,543,cs),
(69,452,o),
(111,421,o),
(159,388,cs),
(333,267,ls),
(379,235,o),
(444,191,o),
(444,124,cs),
(444,57,o),
(394,22,o),
(319,22,cs)
);
}
);
width = 599;
}
);
metricLeft = O;
metricRight = O;
unicode = 83;
},
{
glyphname = T;
lastChange = "2022-11-18 16:58:43 +0000";
layers = (
{
layerId = m01;
shapes = (
{
closed = 1;
nodes = (
(516,700,l),
(356,700,l),
(259,700,l),
(99,700,l),
(99,658,l),
(234,658,ls),
(259,658,o),
(258,638,o),
(259,624,c),
(259,0,l),
(356,0,l),
(356,624,l),
(357,638,o),
(356,658,o),
(381,658,cs),
(516,658,l)
);
},
{
pos = (356,0);
ref = SerifBottomRight;
},
{
pos = (259,0);
ref = SerifBottomLeft;
},
{
pos = (516,700);
ref = SerifSpur;
scale = (-1,1);
},
{
pos = (99,700);
ref = SerifSpur;
}
);
width = 606;
}
);
metricLeft = H;
metricRight = H;
unicode = 84;
},
{
glyphname = U;
lastChange = "2022-11-18 17:06:44 +0000";
layers = (
{
layerId = m01;
shapes = (
{
closed = 1;
nodes = (
(664,-16,o),
(664,172,o),
(664,229,c),
(664,700,l),
(619,700,l),
(619,258,l),
(619,117,o),
(557,40,o),
(415,40,cs),
(292,40,o),
(219,100,o),
(219,253,c),
(219,700,l),
(125,700,l),
(124,678,o),
(125,309,o),
(125,223,c),
(125,109,o),
(170,-16,o),
(414,-16,cs)
);
},
{
angle = 180;
pos = (219,700);
ref = SerifBottomLeft;
},
{
angle = 180;
pos = (619,700);
ref = SerifBottomRight;
},
{
angle = 180;
pos = (125,700);
ref = SerifBottomRight;
},
{
angle = 180;
pos = (664,700);
ref = SerifBottomLeft;
}
);
width = 780;
}
);
metricLeft = H;
metricRight = H;
unicode = 85;
},
{
glyphname = V;
lastChange = "2022-11-18 02:43:02 +0000";
layers = (
{
hints = (
{
name = _corner.rightSerif;
options = 1;
origin = (0,0);
type = Corner;
},
{
name = _corner.leftSerif;
origin = (0,3);
type = Corner;
},
{
name = _corner.rightSerif;
options = 1;
origin = (1,0);
type = Corner;
},
{
name = _corner.leftSerif;
origin = (1,3);
type = Corner;
}
);
layerId = m01;
shapes = (
{
closed = 1;
nodes = (
(127,700,l),
(380,-15,l),
(443,83,l),
(240,700,l)
);
},
{
closed = 1;
nodes = (
(630,700,l),
(380,-15,l),
(424,-15,l),
(677,700,l)
);
}
);
width = 788;
}
);
metricLeft = H;
metricRight = H;
unicode = 86;
},
{
glyphname = W;
lastChange = "2022-11-18 17:10:48 +0000";
layers = (
{
hints = (
{
name = _corner.leftSerif;
origin = (0,8);
scale = (0.87,1);
type = Corner;
},
{
name = _corner.rightSerif;
options = 1;
origin = (0,5);
type = Corner;
},
{
name = _corner.leftSerif;
origin = (0,4);
scale = (0.85,1);
type = Corner;
},
{
name = _corner.rightSerif;
options = 1;
origin = (0,22);
scale = (0.87,1);
type = Corner;
}
);
layerId = m01;
shapes = (
{
closed = 1;
nodes = (
(428,0,l),
(540,307,l),
(643,0,l),
(708,0,l),
(957,700,l),
(912,700,l),
(704,105,l),
(589,454,l),
(677,700,l),
(645,700,l),
(601,700,ls),
(579,700,o),
(555,700,o),
(534,700,cs),
(497,700,l),
(408,700,ls),
(388,700,o),
(350,699,o),
(320,699,cs),
(284,699,o),
(241,700,o),
(216,700,cs),
(114,700,l),
(363,0,l)
);
},
{
closed = 1;
nodes = (
(236,678,o),
(256,675,o),
(320,675,cs),
(371,675,o),
(405,678,o),
(433,598,cs),
(515,362,l),
(424,105,l),
(263,597,ls)
);
},
{
closed = 1;
nodes = (
(522,662,o),
(531,673,o),
(568,673,cs),
(606,673,o),
(618,662,o),
(596,598,cs),
(568,518,l),
(543,597,ls)
);
}
);
width = 1054;
}
);
metricLeft = H;
metricRight = H;
unicode = 87;
},
{
glyphname = X;
lastChange = "2022-11-18 17:39:45 +0000";
layers = (
{
hints = (
{
name = _corner.leftSerif;
origin = (0,2);
type = Corner;
},
{
name = _corner.rightSerif;
options = 1;
origin = (0,3);
scale = (0.6,1);
type = Corner;
},
{
name = _corner.rightSerif;
options = 1;
origin = (0,0);
type = Corner;
},
{
name = _corner.leftSerif;
origin = (0,11);
scale = (0.8,1);
type = Corner;
},
{
name = _corner.rightSerif;
options = 1;
origin = (0,6);
type = Corner;
},
{
name = _corner.leftSerif;
origin = (0,5);
type = Corner;
},
{
name = _corner.leftSerif;
origin = (0,8);
type = Corner;
},
{
name = _corner.rightSerif;
options = 1;
origin = (0,9);
scale = (0.7,1);
type = Corner;
}
);
layerId = m01;
shapes = (
{
closed = 1;
nodes = (
(200,1,l),
(412,307,l),
(632,0,l),
(752,0,l),
(481,378,l),
(703,700,l),
(629,700,l),
(439,423,l),
(236,700,l),
(116,700,l),
(365,356,l),
(118,0,l)
);
}
);
width = 856;
}
);
metricLeft = O;
metricRight = O;
unicode = 88;
},
{
glyphname = Y;
lastChange = "2022-11-26 00:58:08 +0000";
layers = (
{
hints = (
{
name = _corner.leftSerif;
origin = (0,3);
scale = (0.73,1);
type = Corner;
},
{
name = _corner.rightSerif;
options = 1;
origin = (0,4);
type = Corner;
},
{
name = _corner.leftSerif;
origin = (0,6);
type = Corner;
},
{
name = _corner.rightSerif;
options = 1;
origin = (0,7);
scale = (0.72,1);
type = Corner;
}
);
layerId = m01;
shapes = (
{
closed = 1;
nodes = (
(335,0,l),
(432,0,l),
(432,272,l),
(641,700,l),
(594,700,l),
(405,328,l),
(213,700,l),
(116,700,l),
(335,272,l)
);
},
{
pos = (432,0);
ref = SerifBottomRight;
},
{
pos = (335,0);
ref = SerifBottomLeft;
}
);
width = 752;
}
);
metricLeft = O;
metricRight = O;
unicode = 89;
},
{
glyphname = Z;
lastChange = "2022-11-18 18:19:47 +0000";
layers = (
{
layerId = m01;
shapes = (
{
closed = 1;
nodes = (
(50,658,l),
(414,658,l),
(37,47,l),
(37,0,l),
(518,0,l),
(518,42,l),
(148,42,l),
(528,658,l),
(528,700,l),
(50,700,l)
);
},
{
angle = 180;
pos = (142,700);
ref = SerifUpRight;
},
{
pos = (447,0);
ref = SerifUpRight;
}
);
width = 580;
}
);
metricLeft = H;
metricRight = H;
unicode = 90;
},
{
glyphname = a;
lastChange = "2022-11-26 00:55:38 +0000";
layers = (
{
annotations = (
{
pos = (604.559,26.412);
type = Text;
}
);
layerId = m01;
shapes = (
{
closed = 1;
nodes = (
(266,-16,o),
(327,76,o),
(327,76,c),
(327,48,o),
(344,-16,o),
(395,-16,cs),
(444,-16,o),
(470,13,o),
(490,30,c),
(470,47,l),
(456,32,o),
(446,29,o),
(433,29,cs),
(414,29,o),
(403,71,o),
(403,121,cs),
(403,325,ls),
(403,414,o),
(329,451,o),
(249,451,cs),
(179,451,o),
(104,419,o),
(82,374,cs),
(80,370,o),
(80,364,o),
(80,359,cs),
(80,340,o),
(97,319,o),
(120,319,cs),
(137,319,o),
(151,333,o),
(159,352,cs),
(171,376,o),
(181,411,o),
(241,411,cs),
(299,411,o),
(317,383,o),
(317,340,cs),
(317,302,ls),
(317,265,o),
(47,267,o),
(47,103,cs),
(47,20,o),
(104,-16,o),
(176,-16,cs)
);
},
{
closed = 1;
nodes = (
(170,33,o),
(141,60,o),
(141,105,cs),
(141,223,o),
(317,267,o),
(317,235,cs),
(317,111,ls),
(317,95,o),
(263,33,o),
(203,33,cs)
);
}
);
width = 510;
}
);
metricLeft = o;
metricRight = n;
unicode = 97;
},
{
glyphname = b;
lastChange = "2022-11-27 04:33:09 +0000";
layers = (
{
layerId = m01;
shapes = (
{
closed = 1;
nodes = (
(169,741,o),
(161,741,o),
(155,741,c),
(92,728,o),
(99,728,o),
(31,728,c),
(31,701,l),
(87,701,o),
(84,692,o),
(84,657,cs),
(84,-16,l),
(106,-16,l),
(136,48,ls),
(137,50,o),
(141,51,o),
(143,48,cs),
(155,28,o),
(191,-16,o),
(257,-16,cs),
(405,-16,o),
(472,85,o),
(472,201,cs),
(472,323,o),
(389,452,o),
(257,452,cs),
(224,452,o),
(197,444,o),
(169,430,c),
(169,735,ls)
);
},
{
closed = 1;
nodes = (
(217,19,o),
(182,37,o),
(169,73,c),
(169,358,ls),
(169,404,o),
(212,417,o),
(260,417,cs),
(367,417,o),
(377,312,o),
(377,226,cs),
(377,152,o),
(355,19,o),
(257,19,cs)
);
}
);
width = 519;
}
);
metricLeft = n;
metricRight = o;
unicode = 98;
},
{
glyphname = c;
lastChange = "2022-11-26 00:58:16 +0000";
layers = (
{
layerId = m01;
shapes = (
{
closed = 1;
nodes = (
(353,-16,o),
(394,11,o),
(423,45,c),
(401,62,l),
(380,43,o),
(358,21,o),
(286,21,cs),
(182,21,o),
(144,98,o),
(144,204,cs),
(144,306,o),
(165,417,o),
(264,417,cs),
(299,417,o),
(332,414,o),
(336,374,c),
(336,348,o),
(355,325,o),
(377,325,cs),
(400,325,o),
(418,348,o),
(418,374,cs),
(418,421,o),
(332,451,o),
(277,451,cs),
(138,451,o),
(47,374,o),
(47,204,cs),
(47,72,o),
(142,-16,o),
(277,-16,cs)
);
}
);
width = 470;
}
);
metricLeft = o;
metricRight = o;
unicode = 99;
},
{
glyphname = d;
lastChange = "2022-11-27 04:33:06 +0000";
layers = (
{
layerId = m01;
shapes = (
{
closed = 1;
nodes = (
(507,25,l),
(451,25,o),
(436,65,o),
(436,145,cs),
(436,737,ls),
(436,743,o),
(427,743,o),
(421,743,c),
(360,730,o),
(363,730,o),
(295,730,c),
(295,703,l),
(351,703,o),
(350,695,o),
(350,659,cs),
(350,430,l),
(322,444,o),
(295,452,o),
(262,452,cs),
(130,452,o),
(47,323,o),
(47,201,cs),
(47,85,o),
(124,-16,o),
(262,-16,cs),
(307,-16,o),
(345,4,o),
(358,21,c),
(358,5,ls),
(358,1,o),
(360,0,o),
(365,0,cs),
(424,0,o),
(473,-2,o),
(507,-2,c)
);
},
{
closed = 1;
nodes = (
(164,19,o),
(142,152,o),
(142,226,cs),
(142,312,o),
(152,417,o),
(259,417,cs),
(307,417,o),
(350,404,o),
(350,358,cs),
(350,73,l),
(337,37,o),
(302,19,o),
(262,19,cs)
);
}
);
width = 527;
}
);
metricLeft = o;
metricRight = n;
unicode = 100;
},
{
glyphname = e;
lastChange = "2022-11-26 00:55:38 +0000";
layers = (
{
layerId = m01;
shapes = (
{
closed = 1;
nodes = (
(149,275,o),
(149,282,cs),
(149,328,o),
(185,417,o),
(250,417,cs),
(323,417,o),
(344,338,o),
(344,274,cs),
(344,271,o),
(342,267,o),
(339,267,cs),
(274,267,o),
(224,267,o),
(159,267,cs),
(151,267,o)
);
},
{
closed = 1;
nodes = (
(353,-16,o),
(398,19,o),
(430,50,c),
(409,66,l),
(385,49,o),
(356,21,o),
(284,21,cs),
(130,21,o),
(142,171,o),
(142,219,cs),
(142,230,o),
(150,233,o),
(154,233,cs),
(248,233,o),
(330,233,o),
(424,233,cs),
(429,233,o),
(432,237,o),
(432,242,cs),
(432,315,o),
(398,451,o),
(258,451,cs),
(138,451,o),
(47,335,o),
(47,212,cs),
(47,86,o),
(132,-16,o),
(268,-16,cs)
);
}
);
width = 479;
}
);
metricLeft = o;
metricRight = o;
unicode = 101;
},
{
glyphname = f;
lastChange = "2022-11-27 04:39:48 +0000";
layers = (
{
layerId = m01;
shapes = (
{
closed = 1;
nodes = (
(203,0,l),
(203,417,l),
(203,612,o),
(210,690,o),
(279,690,cs),
(331,690,o),
(341,614,o),
(380,614,cs),
(398,614,o),
(420,628,o),
(420,658,cs),
(420,704,o),
(321,724,o),
(273,724,cs),
(114,724,o),
(117,585,o),
(117,423,c),
(117,0,l)
);
},
{
pos = (117,0);
ref = LowerSerifBottomLeft;
},
{
pos = (203,0);
ref = LowerSerifBottomRight;
},
{
closed = 1;
nodes = (
(295,422,l),
(295,462,l),
(31,462,l),
(31,422,l)
);
}
);
width = 360;
}
);
metricLeft = n;
metricRight = "=n*-3";
unicode = 102;
},
{
glyphname = g;
lastChange = "2022-11-26 00:58:20 +0000";
layers = (
{
layerId = m01;
shapes = (
{
closed = 1;
nodes = (
(359,-216,o),
(464,-173,o),
(464,-80,cs),
(464,2,o),
(390,35,o),
(312,47,cs),
(204,63,ls),
(164,69,o),
(156,74,o),
(156,86,cs),
(156,102,o),
(178,112,o),
(249,112,cs),
(336,112,o),
(411,189,o),
(411,283,cs),
(411,327,o),
(391,366,o),
(367,393,c),
(380,398,o),
(389,400,o),
(396,400,cs),
(424,400,o),
(415,368,o),
(443,368,cs),
(462,368,o),
(476,389,o),
(476,409,cs),
(476,422,o),
(470,434,o),
(460,442,cs),
(457,444,o),
(453,446,o),
(447,448,cs),
(438,451,o),
(430,453,o),
(421,453,cs),
(394,453,o),
(370,437,o),
(340,418,c),
(314,436,o),
(283,447,o),
(249,447,cs),
(162,447,o),
(87,371,o),
(87,283,cs),
(87,220,o),
(113,170,o),
(167,138,c),
(127,138,o),
(87,106,o),
(87,61,cs),
(87,29,o),
(103,-3,o),
(169,-13,cs),
(280,-29,ls),
(328,-36,o),
(371,-43,o),
(371,-100,cs),
(371,-163,o),
(319,-180,o),
(250,-180,cs),
(176,-180,o),
(140,-150,o),
(140,-100,cs),
(140,-54,o),
(164,-44,o),
(179,-41,c),
(162,-24,o),
(144,-23,o),
(131,-23,cs),
(94,-23,o),
(47,-43,o),
(47,-101,cs),
(47,-173,o),
(127,-216,o),
(259,-216,cs)
);
},
{
closed = 1;
nodes = (
(181,146,o),
(179,236,o),
(179,286,cs),
(179,325,o),
(185,413,o),
(243,413,cs),
(303,413,o),
(319,334,o),
(319,264,cs),
(319,203,o),
(299,146,o),
(255,146,cs)
);
}
);
width = 523;
}
);
metricLeft = o;
metricRight = o;
unicode = 103;
},
{
glyphname = h;
lastChange = "2022-11-27 04:31:35 +0000";
layers = (
{
layerId = m01;
shapes = (
{
pos = (107,0);
ref = LowerSerifBottomLeft;
},
{
pos = (193,0);
ref = LowerSerifBottomRight;
},
{
pos = (380,0);
ref = LowerSerifBottomLeft;
},
{
pos = (466,0);
ref = LowerSerifBottomRight;
},
{
closed = 1;
nodes = (
(189,741,o),
(185,741,o),
(179,741,c),
(118,728,o),
(123,728,o),
(51,728,c),
(51,701,l),
(107,701,o),
(107,693,o),
(107,657,cs),
(107,0,l),
(193,0,l),
(193,337,l),
(219,364,o),
(250,394,o),
(300,394,cs),
(354,394,o),
(380,360,o),
(380,317,cs),
(380,0,l),
(466,0,l),
(466,324,ls),
(466,413,o),
(401,449,o),
(325,449,cs),
(258,449,o),
(211,419,o),
(189,381,c),
(189,735,ls)
);
}
);
width = 562;
}
);
metricLeft = n;
metricRight = n;
unicode = 104;
},
{
glyphname = i;
lastChange = "2022-11-27 04:31:56 +0000";
layers = (
{
layerId = m01;
shapes = (
{
closed = 1;
nodes = (
(193,0,l),
(193,455,ls),
(193,461,o),
(185,461,o),
(179,461,c),
(118,448,o),
(123,448,o),
(55,448,c),
(55,421,l),
(111,421,o),
(107,413,o),
(107,377,cs),
(107,0,l)
);
},
{
pos = (107,0);
ref = LowerSerifBottomLeft;
},
{
pos = (193,0);
ref = LowerSerifBottomRight;
},
{
pos = (47,641);
ref = period;
}
);
width = 289;
}
);
metricLeft = n;
metricRight = n;
unicode = 105;
},
{
glyphname = j;
lastChange = "2022-12-01 23:55:26 +0000";
layers = (
{
layerId = m01;
shapes = (
{
closed = 1;
nodes = (
(227,-141,o),
(216,-168,o),
(162,-168,cs),
(131,-168,o),
(110,-147,o),
(106,-121,cs),
(103,-96,o),
(90,-76,o),
(64,-80,cs),
(44,-83,o),
(29,-100,o),
(31,-122,cs),
(37,-170,o),
(104,-209,o),
(168,-209,cs),
(250,-209,o),
(313,-173,o),
(313,-84,cs),
(313,455,ls),
(313,461,o),
(301,461,o),
(295,461,c),
(234,448,o),
(239,448,o),
(171,448,c),
(171,421,l),
(227,421,o),
(227,413,o),
(227,377,cs),
(227,-98,ls)
);
},
{
pos = (167,560);
ref = period;
}
);
width = 339;
}
);
metricLeft = n;
metricRight = n;
unicode = 106;
},
{
glyphname = k;
lastChange = "2022-12-02 00:50:56 +0000";
layers = (
{
hints = (
{
name = _corner.rightSerif;
options = 1;
origin = (0,0);
scale = (0.7,1);
type = Corner;
},
{
name = _corner.leftSerif;
origin = (0,2);
scale = (0.74,1);
type = Corner;
},
{
name = _corner.rightSerif;
options = 1;
origin = (0,3);
scale = (0.74,1);
type = Corner;
}
);
layerId = m01;
shapes = (
{
closed = 1;
nodes = (
(498,0,l),
(286,265,l),
(445,435,l),
(387,435,l),
(192,220,l),
(192,151,l),
(245,216,l),
(279,167,ls),
(356,55,o),
(361,50,o),
(378,0,c)
);
},
{
pos = (107,0);
ref = LowerSerifBottomLeft;
},
{
pos = (192,0);
ref = LowerSerifBottomRight;
},
{
closed = 1;
nodes = (
(193,0,l),
(193,739,ls),
(193,745,o),
(189,745,o),
(183,745,c),
(122,732,o),
(119,732,o),
(51,732,c),
(51,705,l),
(107,705,o),
(107,697,o),
(107,661,cs),
(107,0,l)
);
}
);
width = 614;
}
);
metricLeft = n;
metricRight = o;
unicode = 107;
},
{
glyphname = l;
lastChange = "2022-11-27 04:31:40 +0000";
layers = (
{
layerId = m01;
shapes = (
{
closed = 1;
nodes = (
(107,0,l),
(193,0,l),
(193,735,l),
(193,741,o),
(181,741,o),
(175,741,c),
(114,728,o),
(119,728,o),
(51,728,c),
(51,701,l),
(107,701,o),
(107,693,o),
(107,657,cs)
);
},
{
pos = (107,0);
ref = LowerSerifBottomLeft;
},
{
pos = (193,0);
ref = LowerSerifBottomRight;
}
);
width = 289;
}
);
metricLeft = n;
metricRight = n;
unicode = 108;
},
{
glyphname = m;
lastChange = "2022-11-26 00:55:38 +0000";
layers = (
{
layerId = m01;
shapes = (
{
closed = 1;
nodes = (
(494,365,o),
(526,403,o),
(577,403,cs),
(628,403,o),
(657,382,o),
(657,339,cs),
(657,1,l),
(743,1,l),
(743,325,ls),
(743,413,o),
(679,450,o),
(601,450,cs),
(522,450,o),
(485,404,o),
(463,368,c),
(451,416,o),
(393,449,o),
(326,449,cs),
(266,449,o),
(228,424,o),
(189,381,c),
(189,445,ls),
(189,451,o),
(185,451,o),
(179,451,c),
(118,438,o),
(123,438,o),
(55,438,c),
(55,411,l),
(111,411,o),
(107,403,o),
(107,367,cs),
(107,0,l),
(193,0,l),
(193,337,l),
(219,364,o),
(251,402,o),
(302,402,cs),
(353,402,o),
(382,381,o),
(382,338,cs),
(382,0,l),
(468,0,l),
(468,338,l)
);
},
{
pos = (107,0);
ref = LowerSerifBottomLeft;
},
{
pos = (193,0);
ref = LowerSerifBottomRight;
},
{
pos = (382,0);
ref = LowerSerifBottomLeft;
},
{
pos = (468,0);
ref = LowerSerifBottomRight;
},
{
pos = (657,1);
ref = LowerSerifBottomLeft;
},
{
pos = (743,1);
ref = LowerSerifBottomRight;
}
);
width = 839;
}
);
metricLeft = n;
metricRight = n;
unicode = 109;
},
{
glyphname = n;
lastChange = "2022-11-26 00:55:38 +0000";
layers = (
{
layerId = m01;
shapes = (
{
closed = 1;
nodes = (
(466,0,l),
(466,324,ls),
(466,413,o),
(401,449,o),
(325,449,cs),
(258,449,o),
(211,419,o),
(189,381,c),
(189,445,ls),
(189,451,o),
(185,451,o),
(179,451,c),
(118,438,o),
(123,438,o),
(55,438,c),
(55,411,l),
(111,411,o),
(107,403,o),
(107,367,cs),
(107,0,l),
(193,0,l),
(193,337,l),
(219,364,o),
(250,394,o),
(300,394,cs),
(354,394,o),
(380,360,o),
(380,317,cs),
(380,0,l)
);
},
{
pos = (107,0);
ref = LowerSerifBottomLeft;
},
{
pos = (193,0);
ref = LowerSerifBottomRight;
},
{
pos = (380,0);
ref = LowerSerifBottomLeft;
},
{
pos = (466,0);
ref = LowerSerifBottomRight;
}
);
width = 562;
}
);
unicode = 110;
},
{
glyphname = o;
lastChange = "2022-11-26 00:55:38 +0000";
layers = (
{
layerId = m01;
shapes = (
{
attr = {
fill = "1";
};
closed = 1;
nodes = (
(371,-16,o),
(465,91,o),
(465,222,cs),
(465,355,o),
(371,453,o),
(256,453,cs),
(141,453,o),
(47,345,o),
(47,222,cs),
(47,82,o),
(141,-16,o),
(256,-16,cs)
);
},
{
attr = {
fill = "1";
};
closed = 1;
nodes = (
(156,19,o),
(142,148,o),
(142,247,cs),
(142,350,o),
(166,418,o),
(249,418,cs),
(356,418,o),
(370,294,o),
(370,195,cs),
(370,110,o),
(357,19,o),
(264,19,cs)
);
}
);
width = 512;
}
);
unicode = 111;
},
{
glyphname = p;
lastChange = "2022-11-26 00:58:30 +0000";
layers = (
{
hints = (
{
horizontal = 1;
origin = (0,17);
target = down;
type = TopGhost;
}
);
layerId = m01;
shapes = (
{
closed = 1;
nodes = (
(193,-216,l),
(193,5,l),
(221,-9,o),
(245,-17,o),
(278,-17,cs),
(410,-17,o),
(493,72,o),
(493,212,cs),
(493,348,o),
(417,451,o),
(278,451,cs),
(233,451,o),
(199,425,o),
(189,415,c),
(189,455,ls),
(189,461,o),
(184,461,o),
(178,461,c),
(117,448,o),
(117,448,o),
(49,448,c),
(49,421,l),
(105,421,o),
(107,413,o),
(107,377,cs),
(107,-216,l)
);
},
{
pos = (107,-216);
ref = LowerSerifBottomLeft;
},
{
pos = (193,-216);
ref = LowerSerifBottomRight;
},
{
closed = 1;
nodes = (
(233,17,o),
(190,31,o),
(190,77,cs),
(190,362,l),
(203,398,o),
(238,416,o),
(278,416,cs),
(370,416,o),
(398,299,o),
(398,209,cs),
(398,122,o),
(389,17,o),
(281,17,cs)
);
}
);
width = 540;
}
);
metricLeft = n;
metricRight = o;
unicode = 112;
},
{
glyphname = q;
lastChange = "2022-11-26 00:55:38 +0000";
layers = (
{
layerId = m01;
shapes = (
{
pos = (347,-216);
ref = LowerSerifBottomLeft;
},
{
pos = (433,-216);
ref = LowerSerifBottomRight;
},
{
closed = 1;
nodes = (
(152,18,o),
(142,123,o),
(142,209,cs),
(142,299,o),
(170,416,o),
(262,416,cs),
(302,416,o),
(337,398,o),
(350,362,c),
(350,86,ls),
(350,40,o),
(307,18,o),
(259,18,cs)
);
},
{
closed = 1;
nodes = (
(354,408,o),
(321,451,o),
(234,451,cs),
(123,451,o),
(47,348,o),
(47,212,cs),
(47,72,o),
(147,-17,o),
(234,-17,cs),
(280,-17,o),
(328,-6,o),
(347,14,c),
(347,-216,l),
(433,-216,l),
(433,451,l),
(411,451,l),
(375,387,ls),
(374,385,o),
(370,384,o),
(368,387,cs)
);
}
);
width = 529;
}
);
metricLeft = o;
metricRight = n;
unicode = 113;
},
{
glyphname = r;
lastChange = "2022-11-26 00:58:25 +0000";
layers = (
{
layerId = m01;
shapes = (
{
pos = (107,0);
ref = LowerSerifBottomLeft;
},
{
pos = (185,0);
ref = LowerSerifBottomRight;
},
{
closed = 1;
nodes = (
(185,261,o),
(227,392,o),
(306,392,cs),
(347,392,o),
(353,374,o),
(371,374,cs),
(396,374,o),
(419,386,o),
(420,412,cs),
(421,433,o),
(406,452,o),
(384,453,cs),
(271,456,o),
(198,367,o),
(198,367,c),
(185,445,ls),
(184,451,o),
(181,451,o),
(175,451,c),
(114,438,o),
(119,438,o),
(51,438,c),
(51,411,l),
(107,411,o),
(107,403,o),
(107,367,cs),
(107,0,l),
(185,0,l),
(185,150,ls)
);
}
);
width = 467;
}
);
metricLeft = n;
metricRight = o;
unicode = 114;
},
{
glyphname = s;
lastChange = "2022-11-27 03:47:58 +0000";
layers = (
{
background = {
shapes = (
{
closed = 0;
nodes = (
(107,54,l),
(107,16,l)
);
},
{
closed = 1;
nodes = (
(99,21,o),
(68,41,o),
(66,1,c),
(47,1,l),
(56,4,o),
(50,142,o),
(40,141,c),
(60,141,l),
(67,104,o),
(79,91,o),
(85,83,cs),
(107,54,l),
(107,16,l)
);
}
);
};
layerId = m01;
shapes = (
{
closed = 1;
nodes = (
(126,18,o),
(74,87,o),
(74,135,c),
(47,135,l),
(47,108,o),
(47,26,o),
(47,0,c),
(74,0,l),
(74,20,o),
(74,26,o),
(84,26,cs),
(98,26,o),
(122,-16,o),
(221,-16,cs),
(270,-16,o),
(360,11,o),
(360,105,cs),
(360,162,o),
(325,194,o),
(271,231,cs),
(174,297,ls),
(136,323,o),
(124,341,o),
(124,360,cs),
(124,396,o),
(153,417,o),
(191,417,cs),
(267,417,o),
(297,377,o),
(297,313,c),
(324,313,l),
(324,340,o),
(324,426,o),
(324,451,c),
(297,451,l),
(297,433,o),
(292,430,o),
(284,430,cs),
(272,430,o),
(252,450,o),
(188,450,cs),
(103,450,o),
(53,382,o),
(53,324,cs),
(53,268,o),
(80,251,o),
(110,231,cs),
(221,156,ls),
(250,137,o),
(288,112,o),
(288,73,cs),
(288,34,o),
(239,18,o),
(206,18,cs)
);
}
);
width = 407;
}
);
metricLeft = o;
metricRight = o;
unicode = 115;
},
{
glyphname = t;
lastChange = "2022-11-26 00:55:38 +0000";
layers = (
{
hints = (
{
place = (381, 30);
place = (381, 30);
type = Stem;
}
);
layerId = m01;
shapes = (
{
closed = 1;
nodes = (
(91,36,o),
(101,-18,o),
(206,-18,cs),
(269,-18,o),
(308,17,o),
(315,25,c),
(301,52,l),
(293,46,o),
(265,22,o),
(232,22,cs),
(187,22,o),
(177,46,o),
(177,130,cs),
(177,422,l),
(278,422,l),
(278,462,l),
(172,462,l),
(172,592,l),
(142,592,l),
(124,524,o),
(92,462,o),
(31,462,c),
(31,422,l),
(91,422,l),
(91,124,ls)
);
}
);
width = 335;
}
);
metricLeft = n;
metricRight = n;
unicode = 116;
},
{
glyphname = u;
lastChange = "2022-12-02 00:50:34 +0000";
layers = (
{
layerId = m01;
shapes = (
{
closed = 1;
nodes = (
(454,448,o),
(446,448,o),
(440,448,c),
(379,435,o),
(384,435,o),
(316,435,c),
(316,408,l),
(372,408,o),
(368,400,o),
(368,364,cs),
(368,98,l),
(348,73,o),
(313,33,o),
(256,33,cs),
(195,33,o),
(169,54,o),
(169,97,cs),
(169,442,ls),
(169,448,o),
(161,448,o),
(155,448,c),
(94,435,o),
(99,435,o),
(31,435,c),
(31,408,l),
(87,408,o),
(83,400,o),
(83,350,cs),
(83,120,ls),
(83,0,o),
(177,-14,o),
(230,-14,cs),
(311,-14,o),
(346,24,o),
(372,54,c),
(372,0,l),
(454,0,l),
(454,442,l)
);
},
{
pos = (454,0);
ref = LowerSerifBottomRight;
}
);
width = 550;
}
);
metricLeft = n;
metricRight = n;
unicode = 117;
},
{
glyphname = v;
lastChange = "2022-11-26 05:27:59 +0000";
layers = (
{
hints = (
{
name = _corner.rightSerif;
options = 1;
origin = (0,5);
scale = (0.73,1);
type = Corner;
},
{
name = _corner.leftSerif;
origin = (0,4);
scale = (0.73,1);
type = Corner;
},
{
name = _corner.rightSerif;
options = 1;
origin = (0,2);
scale = (0.73,1);
type = Corner;
},
{
name = _corner.leftSerif;
origin = (0,1);
scale = (0.73,1);
type = Corner;
}
);
layerId = m01;
shapes = (
{
closed = 1;
nodes = (
(308,-16,l),
(467,435,l),
(423,435,l),
(308,110,l),
(198,435,l),
(103,435,l),
(263,-16,l)
);
}
);
width = 553;
}
);
metricLeft = n;
metricRight = n;
unicode = 118;
},
{
glyphname = w;
lastChange = "2022-11-26 00:55:38 +0000";
layers = (
{
hints = (
{
name = _corner.rightSerif;
options = 1;
origin = (0,12);
scale = (0.73,1);
type = Corner;
},
{
name = _corner.leftSerif;
origin = (0,7);
scale = (0.73,1);
type = Corner;
},
{
name = _corner.leftSerif;
origin = (0,4);
scale = (0.73,1);
type = Corner;
},
{
name = _corner.rightSerif;
options = 1;
origin = (0,5);
scale = (0.73,1);
type = Corner;
}
);
layerId = m01;
shapes = (
{
closed = 1;
nodes = (
(350,-16,l),
(422,188,l),
(494,-16,l),
(581,-16,l),
(740,435,l),
(696,435,l),
(559,49,l),
(429,435,l),
(343,435,ls),
(325,435,o),
(207,435,o),
(189,435,cs),
(103,435,l),
(263,-16,l)
);
},
{
closed = 1;
nodes = (
(209,401,o),
(218,410,o),
(263,410,cs),
(310,410,o),
(346,401,o),
(374,322,cs),
(400,250,l),
(328,49,l),
(236,321,ls)
);
}
);
width = 826;
}
);
metricLeft = n;
metricRight = n;
unicode = 119;
},
{
glyphname = x;
lastChange = "2022-11-26 00:55:38 +0000";
layers = (
{
hints = (
{
name = _corner.rightSerif;
options = 1;
origin = (2,3);
type = Corner;
},
{
name = _corner.rightSerif;
options = 1;
origin = (1,0);
scale = (0.5,1);
type = Corner;
},
{
name = _corner.rightSerif;
options = 1;
origin = (0,1);
type = Corner;
},
{
name = _corner.rightSerif;
options = 1;
origin = (1,2);
scale = (0.5,1);
type = Corner;
},
{
name = _corner.leftSerif;
origin = (0,0);
scale = (0.5,1);
type = Corner;
},
{
name = _corner.leftSerif;
origin = (2,2);
scale = (0.5,1);
type = Corner;
},
{
name = _corner.leftSerif;
origin = (1,3);
type = Corner;
},
{
name = _corner.leftSerif;
origin = (1,1);
type = Corner;
}
);
layerId = m01;
shapes = (
{
closed = 1;
nodes = (
(514,435,l),
(461,435,l),
(296,252,l),
(325,225,l)
);
},
{
closed = 1;
nodes = (
(531,0,l),
(205,435,l),
(99,435,l),
(423,0,l)
);
},
{
closed = 1;
nodes = (
(322,218,l),
(293,245,l),
(76,0,l),
(129,0,l)
);
}
);
width = 600;
}
);
metricLeft = n;
metricRight = n;
unicode = 120;
},
{
glyphname = y;
lastChange = "2022-11-26 00:55:38 +0000";
layers = (
{
hints = (
{
name = _corner.rightSerif;
options = 1;
origin = (0,7);
scale = (0.73,1);
type = Corner;
},
{
name = _corner.leftSerif;
origin = (0,6);
scale = (0.73,1);
type = Corner;
},
{
name = _corner.rightSerif;
options = 1;
origin = (0,4);
scale = (0.73,1);
type = Corner;
},
{
name = _corner.leftSerif;
origin = (0,3);
scale = (0.73,1);
type = Corner;
}
);
layerId = m01;
shapes = (
{
closed = 1;
nodes = (
(224,-202,o),
(261,-149,o),
(308,-16,cs),
(467,435,l),
(423,435,l),
(308,110,l),
(198,435,l),
(103,435,l),
(258,0,l),
(226,-88,o),
(209,-134,o),
(168,-129,cs),
(138,-126,o),
(124,-143,o),
(122,-160,cs),
(120,-183,o),
(135,-199,o),
(156,-202,c)
);
}
);
width = 553;
}
);
metricLeft = n;
metricRight = n;
unicode = 121;
},
{
glyphname = z;
lastChange = "2022-11-26 00:55:38 +0000";
layers = (
{
layerId = m01;
shapes = (
{
closed = 1;
nodes = (
(414,0,l),
(414,33,ls),
(414,54,o),
(416,93,o),
(416,120,c),
(391,120,l),
(391,69,o),
(383,40,o),
(299,40,cs),
(134,40,l),
(402,396,l),
(402,435,l),
(55,435,l),
(55,402,ls),
(55,382,o),
(54,342,o),
(54,315,c),
(79,315,l),
(79,365,o),
(87,395,o),
(171,395,cs),
(299,395,l),
(31,39,l),
(31,0,l)
);
}
);
width = 436;
}
);
metricLeft = n;
metricRight = n;
unicode = 122;
},
{
glyphname = a_e;
lastChange = "2022-11-27 04:42:34 +0000";
layers = (
{
layerId = m01;
shapes = (
{
closed = 1;
nodes = (
(266,-16,o),
(356,57,o),
(356,57,c),
(385,29,o),
(424,2,o),
(466,-6,cs),
(488,-12,o),
(511,-16,o),
(537,-16,cs),
(622,-16,o),
(667,19,o),
(699,50,c),
(678,66,l),
(654,49,o),
(625,21,o),
(553,21,cs),
(399,21,o),
(411,171,o),
(411,219,cs),
(411,230,o),
(419,233,o),
(423,233,cs),
(693,233,ls),
(698,233,o),
(701,237,o),
(701,242,cs),
(701,315,o),
(667,451,o),
(527,451,cs),
(472,451,o),
(423,427,o),
(387,388,c),
(361,432,o),
(306,451,o),
(249,451,cs),
(179,451,o),
(104,419,o),
(82,374,cs),
(80,370,o),
(80,364,o),
(80,359,cs),
(80,340,o),
(97,319,o),
(120,319,cs),
(137,319,o),
(151,333,o),
(159,352,cs),
(171,376,o),
(181,411,o),
(241,411,cs),
(299,411,o),
(317,383,o),
(317,340,cs),
(317,302,ls),
(317,265,o),
(47,267,o),
(47,103,cs),
(47,20,o),
(104,-16,o),
(176,-16,cs)
);
},
{
closed = 1;
nodes = (
(141,223,o),
(317,267,o),
(317,235,cs),
(317,111,ls),
(317,95,o),
(263,33,o),
(203,33,cs),
(170,33,o),
(141,60,o),
(141,105,cs)
);
},
{
closed = 1;
nodes = (
(418,328,o),
(454,417,o),
(519,417,cs),
(592,417,o),
(613,338,o),
(613,274,cs),
(613,271,o),
(611,267,o),
(608,267,cs),
(428,267,ls),
(420,267,o),
(418,275,o),
(418,282,cs)
);
}
);
width = 748;
}
);
metricLeft = a;
metricRight = e;
},
{
glyphname = f_f;
lastChange = "2022-11-27 04:39:52 +0000";
layers = (
{
layerId = m01;
shapes = (
{
closed = 1;
nodes = (
(203,0,l),
(203,417,l),
(203,422,l),
(400,422,l),
(400,0,l),
(486,0,l),
(486,417,l),
(486,422,l),
(578,422,l),
(578,462,l),
(486,462,l),
(488,624,o),
(499,690,o),
(562,690,cs),
(614,690,o),
(624,614,o),
(663,614,cs),
(681,614,o),
(703,628,o),
(703,658,cs),
(703,704,o),
(604,724,o),
(556,724,cs),
(490,724,o),
(452,700,o),
(430,661,c),
(404,691,o),
(332,704,o),
(293,704,cs),
(147,704,o),
(121,604,o),
(117,462,c),
(31,462,l),
(31,422,l),
(117,422,l),
(117,0,l)
);
},
{
closed = 1;
nodes = (
(208,621,o),
(236,670,o),
(299,670,cs),
(341,670,o),
(388,621,o),
(410,602,c),
(402,561,o),
(400,513,o),
(400,462,c),
(204,462,l)
);
},
{
pos = (117,0);
ref = LowerSerifBottomLeft;
},
{
pos = (203,0);
ref = LowerSerifBottomRight;
},
{
pos = (400,0);
ref = LowerSerifBottomLeft;
},
{
pos = (486,0);
ref = LowerSerifBottomRight;
}
);
width = 643;
}
);
metricLeft = f;
metricRight = f;
},
{
glyphname = f_f_i;
lastChange = "2022-11-27 04:41:14 +0000";
layers = (
{
layerId = m01;
shapes = (
{
closed = 1;
nodes = (
(486,0,l),
(486,422,l),
(642,422,ls),
(697,422,o),
(693,413,o),
(693,377,cs),
(693,0,l),
(779,0,l),
(779,469,ls),
(779,475,o),
(771,475,o),
(765,475,c),
(705,462,o),
(709,462,o),
(643,462,cs),
(486,462,l),
(488,624,o),
(499,690,o),
(562,690,cs),
(634,690,o),
(664,614,o),
(703,614,cs),
(721,614,o),
(743,628,o),
(743,658,cs),
(743,704,o),
(644,724,o),
(556,724,cs),
(499,724,o),
(456,707,o),
(430,661,c),
(404,691,o),
(332,704,o),
(293,704,cs),
(147,704,o),
(121,604,o),
(117,462,c),
(31,462,l),
(31,422,l),
(117,422,l),
(117,0,l),
(203,0,l),
(203,422,l),
(400,422,l),
(400,0,l)
);
},
{
closed = 1;
nodes = (
(208,621,o),
(236,670,o),
(299,670,cs),
(341,670,o),
(388,621,o),
(410,602,c),
(404,574,o),
(402,542,o),
(401,508,cs),
(400,493,o),
(400,478,o),
(400,462,c),
(204,462,l)
);
},
{
alignment = -1;
pos = (400,0);
ref = LowerSerifBottomLeft;
},
{
alignment = -1;
pos = (486,0);
ref = LowerSerifBottomRight;
},
{
alignment = -1;
pos = (693,0);
ref = LowerSerifBottomLeft;
},
{
alignment = -1;
pos = (779,0);
ref = LowerSerifBottomRight;
},
{
alignment = -1;
pos = (117,0);
ref = LowerSerifBottomLeft;
},
{
alignment = -1;
pos = (203,0);
ref = LowerSerifBottomRight;
}
);
width = 875;
}
);
metricLeft = f;
metricRight = i;
},
{
glyphname = f_f_l;
lastChange = "2022-11-27 04:39:37 +0000";
layers = (
{
layerId = m01;
shapes = (
{
closed = 1;
nodes = (
(486,0,l),
(486,422,l),
(578,422,l),
(578,462,l),
(486,462,l),
(488,624,o),
(499,687,o),
(562,687,cs),
(614,687,o),
(624,614,o),
(663,614,cs),
(666,614,o),
(669,614,o),
(672,615,cs),
(676,616,o),
(680,618,o),
(683,620,c),
(683,0,l),
(769,0,l),
(769,721,ls),
(769,727,o),
(757,727,o),
(751,727,c),
(617,699,o),
(677,724,o),
(556,724,cs),
(533,724,o),
(514,721,o),
(498,716,cs),
(466,706,o),
(444,687,o),
(430,661,c),
(404,691,o),
(332,704,o),
(293,704,cs),
(147,704,o),
(121,604,o),
(117,462,c),
(31,462,l),
(31,422,l),
(117,422,l),
(117,0,l),
(203,0,l),
(203,422,l),
(400,422,l),
(400,0,l)
);
},
{
closed = 1;
nodes = (
(208,621,o),
(236,670,o),
(299,670,cs),
(341,670,o),
(388,621,o),
(410,602,c),
(406,581,o),
(403,558,o),
(402,534,cs),
(400,511,o),
(400,487,o),
(400,462,c),
(204,462,l)
);
},
{
closed = 0;
nodes = (
(562,683,l)
);
},
{
alignment = -1;
pos = (683,0);
ref = LowerSerifBottomLeft;
},
{
alignment = -1;
pos = (769,0);
ref = LowerSerifBottomRight;
},
{
alignment = -1;
pos = (117,0);
ref = LowerSerifBottomLeft;
},
{
alignment = -1;
pos = (203,0);
ref = LowerSerifBottomRight;
},
{
alignment = -1;
pos = (400,0);
ref = LowerSerifBottomLeft;
},
{
alignment = -1;
pos = (486,0);
ref = LowerSerifBottomRight;
}
);
width = 865;
}
);
metricLeft = f;
metricRight = l;
},
{
glyphname = f_i;
lastChange = "2022-11-27 04:38:34 +0000";
layers = (
{
layerId = m01;
shapes = (
{
closed = 1;
nodes = (
(203,0,l),
(203,417,l),
(203,612,o),
(211,690,o),
(279,690,cs),
(351,690,o),
(381,614,o),
(420,614,cs),
(438,614,o),
(460,628,o),
(460,658,cs),
(460,704,o),
(361,724,o),
(273,724,cs),
(114,724,o),
(117,585,o),
(117,423,c),
(117,0,l)
);
},
{
pos = (117,0);
ref = LowerSerifBottomLeft;
},
{
pos = (203,0);
ref = LowerSerifBottomRight;
},
{
closed = 1;
nodes = (
(360,423,l),
(360,462,l),
(31,462,l),
(31,422,l)
);
},
{
closed = 1;
nodes = (
(496,0,l),
(496,469,ls),
(496,475,o),
(488,475,o),
(482,475,c),
(421,462,o),
(426,462,o),
(358,462,c),
(358,423,l),
(414,423,o),
(410,413,o),
(410,377,cs),
(410,0,l)
);
},
{
pos = (410,0);
ref = LowerSerifBottomLeft;
},
{
pos = (496,0);
ref = LowerSerifBottomRight;
}
);
width = 592;
}
);
metricLeft = f;
metricRight = i;
},
{
glyphname = f_l;
lastChange = "2022-11-27 04:35:04 +0000";
layers = (
{
layerId = m01;
shapes = (
{
closed = 1;
nodes = (
(203,0,l),
(203,417,l),
(203,422,l),
(295,422,l),
(295,462,l),
(203,462,l),
(205,624,o),
(216,687,o),
(279,687,cs),
(331,687,o),
(341,614,o),
(380,614,cs),
(387,614,o),
(394,616,o),
(400,620,c),
(400,0,l),
(486,0,l),
(486,721,ls),
(486,727,o),
(474,727,o),
(468,727,c),
(334,699,o),
(394,724,o),
(273,724,cs),
(127,724,o),
(118,607,o),
(117,462,c),
(31,462,l),
(31,422,l),
(117,422,l),
(117,0,l)
);
},
{
pos = (117,0);
ref = LowerSerifBottomLeft;
},
{
pos = (203,0);
ref = LowerSerifBottomRight;
},
{
closed = 0;
nodes = (
(279,683,l)
);
},
{
pos = (400,0);
ref = LowerSerifBottomLeft;
},
{
pos = (486,0);
ref = LowerSerifBottomRight;
}
);
width = 582;
}
);
metricLeft = f;
metricRight = l;
},
{
glyphname = zero;
lastChange = "2022-12-01 18:39:03 +0000";
layers = (
{
layerId = m01;
shapes = (
{
attr = {
fill = "1";
};
closed = 1;
nodes = (
(426,-16,o),
(531,141,o),
(531,344,cs),
(531,550,o),
(426,710,o),
(297,710,cs),
(168,710,o),
(62,534,o),
(62,344,cs),
(62,127,o),
(168,-16,o),
(297,-16,cs)
);
},
{
attr = {
fill = "1";
};
closed = 1;
nodes = (
(197,21,o),
(162,167,o),
(162,344,cs),
(162,521,o),
(203,673,o),
(297,673,cs),
(391,673,o),
(430,521,o),
(430,344,cs),
(430,167,o),
(397,21,o),
(297,21,cs)
);
}
);
width = 593;
}
);
unicode = 48;
},
{
glyphname = one;
lastChange = "2022-12-01 18:39:09 +0000";
layers = (
{
layerId = m01;
shapes = (
{
closed = 1;
nodes = (
(258,0,l),
(348,0,l),
(348,695,l),
(348,700,o),
(334,700,o),
(329,700,c),
(274,689,o),
(229,669,o),
(169,669,c),
(169,642,l),
(256,642,o),
(258,631,o),
(258,599,cs)
);
},
{
pos = (258,0);
ref = LowerSerifBottomLeft;
},
{
pos = (348,0);
ref = LowerSerifBottomRight;
}
);
width = 593;
}
);
unicode = 49;
},
{
glyphname = two;
lastChange = "2022-12-01 18:40:01 +0000";
layers = (
{
hints = (
{
place = (55, 30);
place = (55, 30);
type = Stem;
}
);
layerId = m01;
shapes = (
{
closed = 1;
nodes = (
(285,151,o),
(494,354,o),
(494,536,cs),
(494,663,o),
(411,716,o),
(315,716,cs),
(190,716,o),
(103,657,o),
(103,553,cs),
(103,485,o),
(154,426,o),
(206,426,cs),
(252,426,o),
(282,444,o),
(288,467,c),
(282,465,o),
(277,464,o),
(271,464,cs),
(232,464,o),
(183,509,o),
(183,575,cs),
(183,635,o),
(228,675,o),
(303,675,cs),
(369,675,o),
(404,619,o),
(404,541,cs),
(404,534,o),
(404,527,o),
(403,519,cs),
(389,337,o),
(93,32,o),
(84,22,c),
(84,0,l),
(499,0,l),
(497,3,o),
(497,10,o),
(497,20,cs),
(497,62,o),
(508,156,o),
(511,186,c),
(484,187,l),
(470,127,o),
(474,78,o),
(402,78,cs),
(227,78,ls),
(222,78,o),
(220,96,o),
(226,101,cs)
);
}
);
width = 594;
}
);
unicode = 50;
},
{
color = 0;
glyphname = three;
lastChange = "2022-11-18 19:31:04 +0000";
layers = (
{
layerId = m01;
shapes = (
{
closed = 1;
nodes = (
(119,502,l),
(111,530,o),
(111,563,o),
(94,583,c),
(132,629,o),
(195,689,o),
(309,688,cs),
(401,687,o),
(449,629,o),
(449,582,cs),
(449,520,o),
(427,459,o),
(307,389,c),
(418,376,o),
(499,332,o),
(499,241,cs),
(499,66,o),
(378,-26,o),
(118,-6,c),
(128,47,o),
(107,101,o),
(102,153,c),
(126,156,l),
(147,42,o),
(182,25,o),
(256,25,cs),
(299,25,o),
(416,52,o),
(416,207,cs),
(416,301,o),
(364,355,o),
(196,355,c),
(205,386,l),
(310,394,o),
(371,489,o),
(371,545,cs),
(371,596,o),
(350,636,o),
(276,636,cs),
(221,636,o),
(150,569,o),
(141,509,c)
);
}
);
width = 594;
}
);
unicode = 51;
},
{
color = 0;
glyphname = four;
lastChange = "2022-11-18 19:31:04 +0000";
layers = (
{
layerId = m01;
shapes = (
{
closed = 1;
nodes = (
(102,213,l),
(354,652,l),
(315,676,l),
(69,245,l),
(61,213,l)
);
},
{
pos = (316,0);
ref = LowerSerifBottomLeft;
},
{
pos = (387,0);
ref = LowerSerifBottomRight;
},
{
closed = 1;
nodes = (
(485,213,l),
(485,250,l),
(102,250,l),
(102,213,l)
);
},
{
closed = 1;
nodes = (
(386,0,l),
(386,676,l),
(316,676,l),
(316,0,l)
);
},
{
closed = 1;
nodes = (
(513,213,l),
(506,224,o),
(530,292,o),
(534,323,c),
(530,323,o),
(516,324,o),
(516,324,c),
(504,272,o),
(492,250,o),
(456,250,c),
(456,213,l)
);
},
{
closed = 1;
nodes = (
(386,608,o),
(385,647,o),
(414,662,c),
(414,676,l),
(386,676,l),
(386,579,l)
);
}
);
width = 594;
}
);
unicode = 52;
},
{
color = 0;
glyphname = five;
lastChange = "2022-11-18 19:31:04 +0000";
layers = (
{
hints = (
{
place = (412, 30);
place = (412, 30);
type = Stem;
}
);
layerId = m01;
shapes = (
{
closed = 1;
nodes = (
(408,230,o),
(408,207,cs),
(408,52,o),
(291,25,o),
(248,25,cs),
(174,25,o),
(139,42,o),
(119,155,c),
(94,152,l),
(99,101,o),
(121,47,o),
(110,-7,c),
(370,-26,o),
(491,66,o),
(491,240,cs),
(491,299,o),
(461,421,o),
(321,421,cs),
(218,421,o),
(178,378,o),
(178,386,c),
(225,612,l),
(303,612,o),
(339,612,o),
(447,612,c),
(467,644,o),
(474,670,o),
(499,688,c),
(499,704,l),
(468,682,o),
(410,673,o),
(388,673,cs),
(313,673,o),
(237,673,o),
(171,673,c),
(158,538,o),
(125,413,o),
(110,277,c),
(188,368,o),
(246,368,o),
(293,368,cs),
(404,368,o)
);
}
);
width = 594;
}
);
unicode = 53;
},
{
color = 0;
glyphname = six;
lastChange = "2022-11-18 19:31:04 +0000";
layers = (
{
layerId = m01;
shapes = (
{
attr = {
fill = "1";
};
closed = 1;
nodes = (
(410,-16,o),
(503,71,o),
(503,184,cs),
(503,299,o),
(410,386,o),
(299,386,cs),
(175,386,o),
(91,219,o),
(91,194,cs),
(91,43,o),
(180,-16,o),
(299,-16,cs)
);
},
{
attr = {
fill = "1";
};
closed = 1;
nodes = (
(204,35,o),
(171,103,o),
(171,150,cs),
(171,223,o),
(160,335,o),
(299,335,cs),
(381,335,o),
(423,281,o),
(423,184,cs),
(423,87,o),
(386,35,o),
(299,35,cs)
);
},
{
closed = 1;
nodes = (
(171,189,l),
(171,417,o),
(255,585,o),
(382,666,c),
(375,710,l),
(234,653,o),
(91,459,o),
(91,189,c)
);
}
);
width = 594;
}
);
unicode = 54;
},
{
color = 0;
glyphname = seven;
lastChange = "2022-11-18 19:31:04 +0000";
layers = (
{
layerId = m01;
shapes = (
{
closed = 1;
nodes = (
(103,614,l),
(478,614,l),
(478,684,l),
(103,684,l)
);
},
{
closed = 1;
nodes = (
(86,684,l),
(93,673,o),
(69,573,o),
(65,542,c),
(69,542,o),
(83,541,o),
(83,541,c),
(95,593,o),
(107,614,o),
(143,614,c),
(143,684,l)
);
},
{
closed = 1;
nodes = (
(256,0,l),
(276,92,o),
(431,467,o),
(529,684,c),
(478,684,l),
(375,456,o),
(189,52,o),
(181,0,c)
);
}
);
width = 594;
}
);
unicode = 55;
},
{
color = 0;
glyphname = eight;
lastChange = "2022-11-18 19:31:04 +0000";
layers = (
{
layerId = m01;
shapes = (
{
closed = 1;
nodes = (
(409,0,o),
(502,73,o),
(502,188,cs),
(502,285,o),
(452,361,o),
(366,392,c),
(431,417,o),
(470,457,o),
(470,529,cs),
(470,625,o),
(389,700,o),
(292,700,cs),
(195,700,o),
(114,618,o),
(114,529,cs),
(114,452,o),
(163,384,o),
(228,362,c),
(135,339,o),
(92,277,o),
(92,188,cs),
(92,65,o),
(175,0,o),
(292,0,cs)
);
},
{
closed = 1;
nodes = (
(173,254,o),
(181,333,o),
(262,349,c),
(301,344,o),
(337,338,o),
(368,320,cs),
(412,294,o),
(421,249,o),
(421,188,cs),
(421,104,o),
(383,30,o),
(292,30,cs),
(201,30,o),
(173,104,o),
(173,188,cs)
);
},
{
closed = 1;
nodes = (
(186,611,o),
(221,671,o),
(292,671,cs),
(363,671,o),
(398,611,o),
(398,529,cs),
(398,466,o),
(381,425,o),
(337,405,c),
(286,416,o),
(239,421,o),
(206,460,cs),
(191,477,o),
(186,503,o),
(186,529,cs)
);
}
);
width = 594;
}
);
unicode = 56;
},
{
color = 0;
glyphname = nine;
lastChange = "2022-11-18 19:31:04 +0000";
layers = (
{
layerId = m01;
shapes = (
{
attr = {
fill = "1";
};
closed = 1;
nodes = (
(184,710,o),
(90,623,o),
(90,510,cs),
(90,395,o),
(184,307,o),
(295,307,cs),
(418,307,o),
(503,475,o),
(503,500,cs),
(503,651,o),
(415,710,o),
(295,710,cs)
);
},
{
attr = {
fill = "1";
};
closed = 1;
nodes = (
(390,659,o),
(423,592,o),
(423,544,cs),
(423,470,o),
(434,359,o),
(295,359,cs),
(213,359,o),
(171,412,o),
(171,510,cs),
(171,607,o),
(208,659,o),
(295,659,cs)
);
},
{
closed = 1;
nodes = (
(423,505,l),
(423,277,o),
(339,109,o),
(212,28,c),
(218,-16,l),
(360,41,o),
(503,235,o),
(503,505,c)
);
}
);
width = 594;
}
);
unicode = 57;
},
{
color = 0;
glyphname = zero.osf;
lastChange = "2022-11-28 01:50:41 +0000";
layers = (
{
layerId = m01;
shapes = (
{
attr = {
fill = "1";
};
closed = 1;
nodes = (
(379,-10,o),
(473,97,o),
(473,220,c),
(473,345,o),
(379,451,o),
(256,451,cs),
(133,451,o),
(38,335,o),
(38,220,c),
(38,89,o),
(133,-10,o),
(256,-10,cs)
);
},
{
attr = {
fill = "1";
};
closed = 1;
nodes = (
(180,55,o),
(117,114,o),
(117,220,cs),
(117,317,o),
(181,386,o),
(256,386,cs),
(331,386,o),
(394,317,o),
(394,220,cs),
(394,114,o),
(332,55,o),
(256,55,cs)
);
}
);
width = 534;
}
);
metricLeft = o;
metricRight = o;
tags = (
"Clean up"
);
},
{
color = 0;
glyphname = one.osf;
lastChange = "2022-11-28 01:47:25 +0000";
layers = (
{
layerId = m01;
shapes = (
{
closed = 1;
nodes = (
(213,0,l),
(213,435,l),
(134,435,l),
(134,0,l)
);
},
{
pos = (134,0);
ref = LowerSerifBottomLeft;
},
{
pos = (213,0);
ref = LowerSerifBottomRight;
},
{
angle = 180;
pos = (213,435);
ref = LowerSerifBottomLeft;
},
{
angle = 180;
pos = (134,435);
ref = LowerSerifBottomRight;
}
);
width = 303;
}
);
metricLeft = n;
metricRight = n;
tags = (
"Clean up"
);
},
{
color = 0;
glyphname = two.osf;
lastChange = "2022-11-18 19:31:04 +0000";
layers = (
{
layerId = m01;
shapes = (
{
closed = 1;
nodes = (
(307,0,l),
(307,57,l),
(126,57,l),
(269,229,l),
(326,304,o),
(325,326,o),
(325,351,cs),
(325,395,o),
(273,442,o),
(200,442,cs),
(134,442,o),
(89,401,o),
(61,364,c),
(66,358,o),
(69,339,o),
(72,319,c),
(92,322,l),
(102,375,o),
(130,399,o),
(180,399,cs),
(219,399,o),
(252,383,o),
(252,341,cs),
(252,317,o),
(239,288,o),
(218,257,c),
(160,171,o),
(64,29,o),
(53,21,c),
(48,0,l)
);
},
{
closed = 1;
nodes = (
(368,0,l),
(363,8,o),
(380,96,o),
(383,132,c),
(378,132,o),
(363,134,o),
(363,134,c),
(354,74,o),
(352,57,o),
(307,57,c),
(307,0,l)
);
},
{
closed = 0;
nodes = (
(65,379,l)
);
}
);
width = 407;
}
);
metricLeft = o;
metricRight = n;
tags = (
"Clean up"
);
},
{
color = 0;
glyphname = three.osf;
lastChange = "2022-11-18 19:31:04 +0000";
layers = (
{
layerId = m01;
shapes = (
{
closed = 1;
nodes = (
(70,279,l),
(63,305,o),
(63,335,o),
(48,353,c),
(82,395,o),
(139,449,o),
(243,448,cs),
(326,447,o),
(370,395,o),
(370,352,cs),
(370,296,o),
(350,240,o),
(241,177,c),
(342,165,o),
(415,125,o),
(415,42,cs),
(415,-116,o),
(305,-200,o),
(69,-182,c),
(79,-134,o),
(59,-85,o),
(55,-38,c),
(77,-35,l),
(96,-138,o),
(128,-154,o),
(195,-154,cs),
(234,-154,o),
(340,-129,o),
(340,11,cs),
(340,97,o),
(293,146,o),
(140,146,c),
(148,174,l),
(244,181,o),
(299,267,o),
(299,318,cs),
(299,365,o),
(280,401,o),
(213,401,cs),
(163,401,o),
(99,340,o),
(90,286,c)
);
}
);
width = 463;
}
);
metricLeft = o;
metricRight = o;
},
{
color = 0;
glyphname = four.osf;
lastChange = "2022-11-18 19:31:04 +0000";
layers = (
{
layerId = m01;
shapes = (
{
closed = 1;
nodes = (
(81,26,l),
(296,414,l),
(265,435,l),
(54,54,l),
(48,26,l)
);
},
{
closed = 1;
nodes = (
(399,26,l),
(399,59,l),
(81,59,l),
(81,26,l)
);
},
{
closed = 1;
nodes = (
(319,-162,l),
(319,435,l),
(266,435,l),
(266,-162,l)
);
},
{
closed = 1;
nodes = (
(422,26,l),
(417,35,o),
(436,95,o),
(439,124,c),
(436,124,o),
(424,125,o),
(424,125,c),
(415,78,o),
(405,59,o),
(375,59,c),
(375,26,l)
);
},
{
closed = 1;
nodes = (
(319,375,o),
(318,410,o),
(342,423,c),
(342,435,l),
(319,435,l),
(319,350,l)
);
},
{
pos = (319,-162);
ref = LowerSerifBottomRight;
scale = (0.9621,1.1453);
},
{
pos = (266,-162);
ref = LowerSerifBottomLeft;
scale = (0.9621,1.1453);
}
);
width = 487;
}
);
metricLeft = o;
metricRight = o;
},
{
color = 0;
glyphname = five.osf;
lastChange = "2022-11-18 19:31:04 +0000";
layers = (
{
layerId = m01;
shapes = (
{
closed = 1;
nodes = (
(287,78,o),
(287,60,cs),
(287,-65,o),
(193,-87,o),
(159,-87,cs),
(99,-87,o),
(71,-73,o),
(54,19,c),
(35,16,l),
(39,-25,o),
(56,-69,o),
(48,-112,c),
(257,-128,o),
(353,-54,o),
(353,86,cs),
(353,134,o),
(329,232,o),
(218,232,cs),
(135,232,o),
(102,197,o),
(102,203,c),
(140,385,l),
(202,385,o),
(232,385,o),
(319,385,c),
(336,412,o),
(341,432,o),
(360,447,c),
(360,459,l),
(336,442,o),
(288,435,o),
(271,435,cs),
(210,435,o),
(149,435,o),
(97,435,c),
(85,326,o),
(59,226,o),
(48,117,c),
(110,188,o),
(157,188,o),
(194,188,cs),
(284,188,o)
);
}
);
width = 408;
}
);
metricLeft = n;
metricRight = o;
},
{
color = 0;
glyphname = six.osf;
lastChange = "2022-11-18 19:31:04 +0000";
layers = (
{
layerId = m01;
shapes = (
{
attr = {
fill = "1";
};
closed = 1;
nodes = (
(302,-16,o),
(376,53,o),
(376,143,cs),
(376,234,o),
(302,303,o),
(214,303,cs),
(115,303,o),
(48,171,o),
(48,151,cs),
(48,31,o),
(119,-16,o),
(214,-16,cs)
);
},
{
attr = {
fill = "1";
};
closed = 1;
nodes = (
(138,25,o),
(112,79,o),
(112,116,cs),
(112,174,o),
(103,263,o),
(214,263,cs),
(279,263,o),
(312,220,o),
(312,143,cs),
(312,66,o),
(283,25,o),
(214,25,cs)
);
},
{
closed = 1;
nodes = (
(112,147,l),
(112,328,o),
(179,462,o),
(280,526,c),
(274,561,l),
(162,516,o),
(48,361,o),
(48,147,c)
);
}
);
width = 424;
}
);
metricLeft = o;
metricRight = o;
},
{
color = 0;
glyphname = seven.osf;
lastChange = "2022-11-18 19:31:04 +0000";
layers = (
{
layerId = m01;
shapes = (
{
closed = 1;
nodes = (
(64,381,l),
(352,381,l),
(352,435,l),
(64,435,l)
);
},
{
closed = 1;
nodes = (
(51,435,l),
(56,427,o),
(38,349,o),
(35,325,c),
(38,325,o),
(48,324,o),
(48,324,c),
(58,364,o),
(67,381,o),
(95,381,c),
(95,435,l)
);
},
{
closed = 1;
nodes = (
(181,-100,l),
(197,-28,o),
(315,265,o),
(391,435,c),
(352,435,l),
(273,257,o),
(131,-59,o),
(124,-100,c)
);
}
);
width = 439;
}
);
metricLeft = n;
metricRight = o;
},
{
color = 0;
glyphname = eight.osf;
lastChange = "2022-11-18 19:31:04 +0000";
layers = (
{
layerId = m01;
shapes = (
{
closed = 1;
nodes = (
(309,0,o),
(386,60,o),
(386,155,cs),
(386,235,o),
(345,298,o),
(274,323,c),
(327,344,o),
(360,377,o),
(360,436,cs),
(360,515,o),
(293,577,o),
(213,577,cs),
(133,577,o),
(66,509,o),
(66,436,cs),
(66,373,o),
(107,317,o),
(160,298,c),
(83,279,o),
(48,228,o),
(48,155,cs),
(48,54,o),
(116,0,o),
(213,0,cs)
);
},
{
closed = 1;
nodes = (
(115,209,o),
(121,274,o),
(188,288,c),
(220,284,o),
(250,279,o),
(276,264,cs),
(312,242,o),
(319,205,o),
(319,155,cs),
(319,86,o),
(288,25,o),
(213,25,cs),
(138,25,o),
(115,86,o),
(115,155,cs)
);
},
{
closed = 1;
nodes = (
(126,504,o),
(154,553,o),
(213,553,cs),
(271,553,o),
(300,504,o),
(300,436,cs),
(300,384,o),
(286,350,o),
(250,334,c),
(208,343,o),
(169,347,o),
(142,379,cs),
(130,393,o),
(126,415,o),
(126,436,cs)
);
}
);
width = 434;
}
);
metricLeft = o;
metricRight = o;
},
{
color = 0;
glyphname = nine.osf;
lastChange = "2022-11-18 19:31:04 +0000";
layers = (
{
layerId = m01;
shapes = (
{
attr = {
fill = "1";
};
closed = 1;
nodes = (
(123,450,o),
(48,381,o),
(48,291,cs),
(48,200,o),
(123,130,o),
(211,130,cs),
(309,130,o),
(377,263,o),
(377,283,cs),
(377,403,o),
(307,450,o),
(211,450,cs)
);
},
{
attr = {
fill = "1";
};
closed = 1;
nodes = (
(287,409,o),
(313,356,o),
(313,318,cs),
(313,259,o),
(322,171,o),
(211,171,cs),
(146,171,o),
(113,213,o),
(113,291,cs),
(113,368,o),
(142,409,o),
(211,409,cs)
);
},
{
closed = 1;
nodes = (
(313,287,l),
(313,106,o),
(246,-28,o),
(145,-92,c),
(150,-127,l),
(263,-82,o),
(377,72,o),
(377,287,c)
);
}
);
width = 425;
}
);
metricLeft = o;
metricRight = o;
},
{
glyphname = period;
lastChange = "2022-11-26 17:53:38 +0000";
layers = (
{
layerId = m01;
shapes = (
{
closed = 1;
nodes = (
(127,-12,o),
(152,14,o),
(152,40,cs),
(152,67,o),
(127,94,o),
(98,94,cs),
(70,94,o),
(45,67,o),
(45,40,cs),
(45,14,o),
(70,-12,o),
(98,-12,cs)
);
}
);
width = 197;
}
);
metricLeft = O;
metricRight = O;
unicode = 46;
},
{
glyphname = comma;
lastChange = "2022-11-26 17:53:42 +0000";
layers = (
{
layerId = m01;
shapes = (
{
closed = 1;
nodes = (
(103,-10,o),
(109,-12,o),
(109,-20,cs),
(109,-31,o),
(93,-53,o),
(47,-67,c),
(55,-93,l),
(134,-69,o),
(155,-32,o),
(155,8,cs),
(155,52,o),
(126,70,o),
(100,70,cs),
(75,70,o),
(55,52,o),
(55,30,cs),
(55,8,o),
(75,-10,o),
(100,-10,cs)
);
}
);
width = 200;
}
);
metricLeft = o;
metricRight = O;
unicode = 44;
},
{
glyphname = exclam;
lastChange = "2022-11-27 03:57:36 +0000";
layers = (
{
layerId = m01;
shapes = (
{
closed = 1;
nodes = (
(92,155,l),
(92,260,o),
(127,367,o),
(127,520,cs),
(127,651,ls),
(127,687,o),
(117,716,o),
(78,716,cs),
(39,716,o),
(29,687,o),
(29,651,cs),
(29,524,ls),
(29,368,o),
(65,260,o),
(65,155,c)
);
},
{
pos = (-16,0);
ref = period;
}
);
width = 156;
}
);
metricLeft = H;
metricRight = H;
unicode = 33;
},
{
glyphname = question;
lastChange = "2022-11-27 03:57:15 +0000";
layers = (
{
layerId = m01;
shapes = (
{
closed = 1;
nodes = (
(143,208,o),
(160,178,o),
(168,147,c),
(194,158,l),
(189,178,o),
(180,198,o),
(180,218,cs),
(180,402,o),
(394,374,o),
(394,568,cs),
(394,660,o),
(330,712,o),
(222,716,cs),
(134,719,o),
(68,703,o),
(68,656,cs),
(68,637,o),
(82,618,o),
(103,618,cs),
(138,618,o),
(134,674,o),
(201,674,cs),
(234,674,o),
(287,658,o),
(287,585,cs),
(287,408,o),
(143,406,o),
(143,239,cs)
);
},
{
pos = (105,0);
ref = period;
}
);
width = 439;
}
);
metricLeft = "=O*1.5";
metricRight = O;
unicode = 63;
},
{
glyphname = bullet;
lastChange = "2022-11-27 03:54:16 +0000";
layers = (
{
layerId = m01;
shapes = (
{
closed = 1;
nodes = (
(232,283,o),
(259,309,o),
(275,344,o),
(275,365,qs),
(275,385,o),
(260,420,o),
(233,446,o),
(198,461,o),
(178,461,qs),
(158,461,o),
(122,446,o),
(95,420,o),
(79,385,o),
(79,365,qs),
(79,344,o),
(95,309,o),
(121,283,o),
(156,268,o),
(175,268,qs),
(196,268,o)
);
}
);
width = 354;
}
);
metricLeft = "=O*1.75";
metricRight = "=O*1.75";
unicode = 8226;
},
{
glyphname = numbersign;
lastChange = "2022-11-26 21:21:48 +0000";
layers = (
{
layerId = m01;
shapes = (
{
closed = 1;
nodes = (
(355,700,l),
(295,700,l),
(189,0,l),
(249,0,l)
);
},
{
closed = 1;
nodes = (
(557,700,l),
(497,700,l),
(391,0,l),
(451,0,l)
);
},
{
closed = 1;
nodes = (
(670,477,l),
(85,477,l),
(78,423,l),
(662,423,l)
);
},
{
closed = 1;
nodes = (
(637,274,l),
(54,274,l),
(45,220,l),
(628,220,l)
);
}
);
width = 715;
}
);
metricLeft = "=O";
metricRight = "=O";
unicode = 35;
},
{
glyphname = slash;
lastChange = "2022-11-26 18:04:18 +0000";
layers = (
{
layerId = m01;
shapes = (
{
closed = 1;
nodes = (
(370,700,l),
(313,700,l),
(23,0,l),
(87,0,l)
);
}
);
width = 393;
}
);
metricLeft = "=O/2";
metricRight = "=O/2";
unicode = 47;
},
{
glyphname = backslash;
lastChange = "2022-11-26 18:04:15 +0000";
layers = (
{
layerId = m01;
shapes = (
{
closed = 1;
nodes = (
(370,0,l),
(80,700,l),
(23,700,l),
(306,0,l)
);
}
);
width = 393;
}
);
metricLeft = "=O/2";
metricRight = "=O/2";
unicode = 92;
},
{
glyphname = hyphen;
lastChange = "2022-12-02 00:45:00 +0000";
layers = (
{
layerId = m01;
shapes = (
{
closed = 1;
nodes = (
(56,282,l),
(56,221,l),
(357,221,l),
(357,282,l)
);
}
);
width = 413;
}
);
metricLeft = "=O*1.25";
metricRight = "=O*1.25";
unicode = 45;
},
{
glyphname = parenleft;
lastChange = "2022-12-02 00:49:47 +0000";
layers = (
{
layerId = m01;
shapes = (
{
closed = 1;
nodes = (
(221,-77,l),
(139,45,o),
(119,166,o),
(119,368,cs),
(119,529,o),
(124,613,o),
(215,776,c),
(195,800,l),
(87,664,o),
(31,514,o),
(31,354,cs),
(31,191,o),
(91,36,o),
(200,-101,c)
);
}
);
width = 231;
}
);
metricLeft = n;
metricRight = "=n/2";
unicode = 40;
},
{
glyphname = bracketleft;
lastChange = "2022-11-26 18:01:23 +0000";
layers = (
{
layerId = m01;
shapes = (
{
closed = 1;
nodes = (
(90,754,l),
(90,-127,l),
(303,-127,l),
(303,-89,l),
(176,-89,l),
(176,716,l),
(303,716,l),
(303,754,l)
);
}
);
width = 326;
}
);
metricLeft = "=O*2";
metricRight = "=O/2";
unicode = 91;
},
{
color = 0;
export = 0;
glyphname = braceleft;
lastChange = "2022-12-02 00:49:34 +0000";
layers = (
{
layerId = m01;
shapes = (
{
closed = 1;
nodes = (
(210,228,o),
(202,276,o),
(181,312,o),
(142,335,o),
(112,340,q),
(112,345,l),
(144,352,o),
(182,379,o),
(203,419,o),
(210,470,o),
(210,501,qs),
(210,680,ls),
(210,734,o),
(245,795,o),
(292,807,q),
(292,830,l),
(239,830,o),
(172,812,o),
(134,772,o),
(120,707,o),
(120,659,qs),
(120,484,ls),
(120,455,o),
(113,412,o),
(94,381,o),
(59,361,o),
(31,355,q),
(31,330,l),
(56,328,o),
(91,303,o),
(111,267,o),
(120,222,o),
(120,200,qs),
(120,4,ls),
(120,-41,o),
(137,-101,o),
(178,-136,o),
(246,-150,o),
(296,-150,q),
(296,-128,l),
(245,-114,o),
(210,-54,o),
(210,0,qs),
(210,198,ls)
);
}
);
width = 341;
}
);
metricLeft = "=n";
metricRight = "=O";
unicode = 123;
},
{
glyphname = quotesingle;
lastChange = "2022-11-27 04:16:38 +0000";
layers = (
{
layerId = m01;
shapes = (
{
closed = 1;
nodes = (
(116,594,l),
(116,629,o),
(146,687,o),
(146,735,cs),
(146,769,o),
(121,786,o),
(96,786,cs),
(71,786,o),
(45,769,o),
(45,735,cs),
(45,687,o),
(76,629,o),
(76,594,c)
);
}
);
width = 191;
}
);
metricLeft = O;
metricRight = O;
unicode = 39;
},
{
glyphname = bar;
lastChange = "2022-11-26 18:03:34 +0000";
layers = (
{
layerId = m01;
shapes = (
{
closed = 1;
nodes = (
(90,774,l),
(90,-200,l),
(156,-200,l),
(156,774,l)
);
}
);
width = 246;
}
);
metricLeft = "=O*2";
metricRight = "=O*2";
unicode = 124;
},
{
glyphname = cent;
lastChange = "2022-11-27 04:46:10 +0000";
layers = (
{
layerId = m01;
shapes = (
{
alignment = -1;
pos = (0,7);
ref = c;
},
{
closed = 1;
nodes = (
(230,569,l),
(230,-101,l),
(282,-101,l),
(282,569,l)
);
}
);
width = 470;
}
);
unicode = 162;
},
{
glyphname = dollar;
lastChange = "2022-11-27 04:17:53 +0000";
layers = (
{
layerId = m01;
shapes = (
{
closed = 1;
nodes = (
(435,0,o),
(539,40,o),
(539,173,cs),
(539,268,o),
(485,299,o),
(403,356,cs),
(258,447,ls),
(200,487,o),
(179,537,o),
(179,565,cs),
(179,619,o),
(218,664,o),
(283,664,cs),
(387,664,o),
(404,596,o),
(409,579,cs),
(418,547,o),
(434,534,o),
(454,534,cs),
(476,534,o),
(499,546,o),
(499,579,cs),
(499,636,o),
(403,700,o),
(278,700,cs),
(151,700,o),
(76,597,o),
(76,510,cs),
(76,435,o),
(116,411,o),
(162,378,cs),
(328,277,ls),
(372,245,o),
(435,197,o),
(435,134,cs),
(435,69,o),
(405,36,o),
(286,36,cs),
(176,36,o),
(135,116,o),
(135,154,cs),
(135,180,o),
(114,199,o),
(90,199,cs),
(63,199,o),
(45,180,o),
(45,154,cs),
(45,68,o),
(176,0,o),
(310,0,cs)
);
},
{
closed = 1;
nodes = (
(262,800,l),
(262,-120,l),
(318,-120,l),
(318,800,l)
);
}
);
width = 584;
}
);
metricLeft = S;
metricRight = S;
unicode = 36;
},
{
glyphname = euro;
lastChange = "2022-11-27 04:48:14 +0000";
layers = (
{
layerId = m01;
shapes = (
{
closed = 1;
nodes = (
(522,-15,o),
(601,87,o),
(614,124,c),
(580,139,l),
(557,92,o),
(484,27,o),
(401,27,cs),
(227,27,o),
(222,192,o),
(222,331,cs),
(222,468,o),
(224,673,o),
(376,673,cs),
(474,673,o),
(514,627,o),
(526,614,cs),
(547,591,o),
(560,559,o),
(560,522,c),
(587,522,l),
(587,557,o),
(585,667,o),
(585,700,c),
(558,700,l),
(558,671,o),
(554,665,o),
(531,665,cs),
(511,665,o),
(459,715,o),
(376,715,cs),
(182,715,o),
(100,503,o),
(100,342,cs),
(100,179,o),
(158,-15,o),
(377,-15,cs)
);
},
{
closed = 1;
nodes = (
(435,438,l),
(45,438,l),
(45,382,l),
(435,382,l)
);
},
{
closed = 1;
nodes = (
(435,318,l),
(45,318,l),
(45,262,l),
(435,262,l)
);
}
);
width = 634;
}
);
metricLeft = C;
metricRight = C;
unicode = 8364;
},
{
glyphname = plus;
lastChange = "2022-11-26 21:20:55 +0000";
layers = (
{
layerId = m01;
shapes = (
{
closed = 1;
nodes = (
(66,372,l),
(66,318,l),
(528,318,l),
(528,372,l)
);
},
{
closed = 1;
nodes = (
(270,114,l),
(324,114,l),
(324,576,l),
(270,576,l)
);
}
);
width = 594;
}
);
unicode = 43;
},
{
glyphname = minus;
lastChange = "2022-11-26 21:21:37 +0000";
layers = (
{
layerId = m01;
shapes = (
{
closed = 1;
nodes = (
(76,372,l),
(76,318,l),
(518,318,l),
(518,372,l)
);
}
);
width = 594;
}
);
unicode = 8722;
},
{
glyphname = equal;
lastChange = "2022-11-26 21:21:28 +0000";
layers = (
{
layerId = m01;
shapes = (
{
closed = 1;
nodes = (
(76,292,l),
(76,238,l),
(518,238,l),
(518,292,l)
);
},
{
closed = 1;
nodes = (
(76,415,l),
(76,361,l),
(518,361,l),
(518,415,l)
);
}
);
width = 594;
}
);
unicode = 61;
},
{
glyphname = greater;
lastChange = "2022-11-26 22:03:15 +0000";
layers = (
{
layerId = m01;
shapes = (
{
closed = 1;
nodes = (
(90,503,l),
(463,303,l),
(463,363,l),
(90,563,l)
);
},
{
closed = 1;
nodes = (
(463,285,l),
(463,345,l),
(90,145,l),
(90,85,l)
);
}
);
width = 483;
}
);
metricLeft = "=O*2";
metricRight = n;
unicode = 62;
},
{
glyphname = less;
lastChange = "2022-11-26 22:04:41 +0000";
layers = (
{
layerId = m01;
shapes = (
{
closed = 1;
nodes = (
(31,363,l),
(31,303,l),
(404,503,l),
(404,563,l)
);
},
{
closed = 1;
nodes = (
(404,145,l),
(31,345,l),
(31,285,l),
(404,85,l)
);
}
);
width = 494;
}
);
metricLeft = "=n";
metricRight = "=O*2";
unicode = 60;
},
{
glyphname = asciitilde;
lastChange = "2022-12-02 00:46:01 +0000";
layers = (
{
layerId = m01;
shapes = (
{
closed = 1;
nodes = (
(340,207,o),
(373,245,o),
(378,317,c),
(350,317,l),
(343,285,o),
(335,272,o),
(313,271,cs),
(258,268,o),
(196,304,o),
(144,301,cs),
(96,299,o),
(63,265,o),
(56,193,c),
(85,193,l),
(91,224,o),
(99,236,o),
(121,237,cs),
(175,240,o),
(249,203,o),
(296,205,cs)
);
}
);
width = 434;
}
);
metricLeft = "=O*1.25";
metricRight = "=O*1.25";
unicode = 126;
},
{
glyphname = asciicircum;
lastChange = "2022-11-26 22:07:05 +0000";
layers = (
{
layerId = m01;
shapes = (
{
closed = 1;
nodes = (
(487,333,l),
(317,706,l),
(277,706,l),
(107,333,l),
(147,333,l),
(280,625,l),
(407,333,l)
);
}
);
width = 600;
}
);
unicode = 94;
},
{
glyphname = percent;
lastChange = "2022-11-26 21:56:32 +0000";
layers = (
{
layerId = m01;
shapes = (
{
attr = {
fill = "1";
identifier = ID0x7fe2621dd190;
};
closed = 1;
nodes = (
(183,435,o),
(174,491,o),
(174,562,cs),
(174,632,o),
(185,691,o),
(223,691,cs),
(260,691,o),
(272,632,o),
(272,562,cs),
(272,491,o),
(263,435,o),
(223,435,cs)
);
},
{
attr = {
fill = "1";
identifier = ID0x7fe2449d0e10;
};
closed = 1;
nodes = (
(487,-10,o),
(535,54,o),
(535,136,cs),
(535,218,o),
(487,283,o),
(436,283,cs),
(384,283,o),
(337,212,o),
(337,136,cs),
(337,49,o),
(384,-10,o),
(436,-10,cs)
);
},
{
attr = {
fill = "1";
identifier = ID0x7fe2449d0e10;
};
closed = 1;
nodes = (
(396,11,o),
(387,65,o),
(387,136,cs),
(387,206,o),
(398,262,o),
(436,262,cs),
(473,262,o),
(485,206,o),
(485,136,cs),
(485,65,o),
(476,11,o),
(436,11,cs)
);
},
{
closed = 1;
nodes = (
(90,0,l),
(140,0,l),
(569,700,l),
(519,700,l),
(477,677,o),
(434,663,o),
(388,663,cs),
(318,663,o),
(259,712,o),
(223,712,cs),
(171,712,o),
(124,638,o),
(124,562,cs),
(124,475,o),
(171,414,o),
(223,414,cs),
(274,414,o),
(322,480,o),
(322,562,cs),
(322,610,o),
(301,651,o),
(290,664,c),
(323,647,o),
(357,636,o),
(396,636,cs),
(421,636,o),
(466,647,o),
(499,667,c)
);
}
);
width = 659;
}
);
metricLeft = "=O*2";
metricRight = "=O*2";
unicode = 37;
},
{
glyphname = grave;
lastChange = "2022-11-27 04:53:53 +0000";
layers = (
{
layerId = m01;
shapes = (
{
closed = 1;
nodes = (
(266,574,l),
(239,599,o),
(176,672,o),
(124,712,cs),
(110,723,o),
(92,739,o),
(66,739,cs),
(42,739,o),
(23,718,o),
(24,698,cs),
(24,654,o),
(42,649,o),
(204,574,c)
);
}
);
width = 290;
}
);
metricLeft = "=o/2";
metricRight = "=o/2";
unicode = 96;
},
{
export = 0;
glyphname = _corner.leftSerif;
lastChange = "2022-11-18 16:59:19 +0000";
layers = (
{
layerId = m01;
shapes = (
{
closed = 0;
nodes = (
(0,120,l),
(0,35,o),
(-27,25,o),
(-91,25,c),
(-91,-2,l),
(-56,-2,o),
(-12,0,o),
(13,0,c)
);
}
);
width = 200;
}
);
},
{
export = 0;
glyphname = _corner.rightSerif;
lastChange = "2022-11-18 16:59:23 +0000";
layers = (
{
layerId = m01;
shapes = (
{
closed = 0;
nodes = (
(-13,0,l),
(12,0,o),
(63,-2,o),
(98,-2,c),
(98,25,l),
(34,25,o),
(0,35,o),
(0,120,c)
);
}
);
width = 200;
}
);
},
{
export = 0;
glyphname = AsteriskBar;
lastChange = "2022-11-26 22:07:38 +0000";
layers = (
{
layerId = m01;
shapes = (
{
closed = 1;
nodes = (
(96,454,o),
(108,468,o),
(108,485,cs),
(107,507,o),
(88,546,o),
(88,591,cs),
(88,636,o),
(106,671,o),
(106,698,cs),
(106,715,o),
(95,728,o),
(76,728,cs),
(57,728,o),
(45,715,o),
(45,697,cs),
(45,675,o),
(66,636,o),
(66,591,cs),
(66,547,o),
(46,512,o),
(46,485,cs),
(46,468,o),
(58,454,o),
(77,454,cs)
);
}
);
width = 153;
}
);
metricLeft = O;
metricRight = O;
},
{
export = 0;
glyphname = LowerSerifBottomLeft;
lastChange = "2022-11-18 16:59:34 +0000";
layers = (
{
layerId = m01;
shapes = (
{
closed = 1;
nodes = (
(0,120,l),
(0,35,o),
(-26,25,o),
(-76,25,c),
(-76,-2,l),
(-41,-2,o),
(-12,0,o),
(13,0,c)
);
}
);
width = 600;
}
);
},
{
export = 0;
glyphname = LowerSerifBottomRight;
lastChange = "2022-11-18 16:59:55 +0000";
layers = (
{
layerId = m01;
shapes = (
{
closed = 1;
nodes = (
(12,0,o),
(41,-2,o),
(76,-2,c),
(76,25,l),
(26,25,o),
(0,35,o),
(0,120,c),
(-13,0,l)
);
}
);
width = 80;
}
);
},
{
export = 0;
glyphname = SerifBottomLeft;
lastChange = "2022-11-18 17:00:01 +0000";
layers = (
{
layerId = m01;
shapes = (
{
closed = 1;
nodes = (
(0,120,l),
(0,35,o),
(-32,26,o),
(-96,26,c),
(-96,-2,l),
(-51,-2,o),
(-12,0,o),
(13,0,c)
);
}
);
width = 17;
}
);
},
{
export = 0;
glyphname = SerifBottomRight;
lastChange = "2022-11-18 17:00:15 +0000";
layers = (
{
layerId = m01;
shapes = (
{
closed = 1;
nodes = (
(12,0,o),
(51,-2,o),
(96,-2,c),
(96,25,l),
(32,25,o),
(0,34,o),
(0,119,c),
(-13,0,l)
);
}
);
width = 100;
}
);
},
{
export = 0;
glyphname = SerifDownEF;
lastChange = "2022-11-18 17:00:34 +0000";
layers = (
{
layerId = m01;
shapes = (
{
closed = 1;
nodes = (
(125,0,l),
(125,-42,ls),
(125,-67,o),
(127,-116,o),
(127,-151,c),
(100,-151,l),
(100,-87,o),
(91,-42,o),
(0,-42,c),
(0,0,l)
);
}
);
width = 124;
}
);
},
{
export = 0;
glyphname = SerifSpur;
lastChange = "2022-11-18 15:42:09 +0000";
layers = (
{
layerId = m01;
shapes = (
{
closed = 1;
nodes = (
(0,-42,l),
(-36,-42,o),
(-43,-93,o),
(-43,-165,c),
(-70,-165,l),
(-70,-130,o),
(-68,-43,o),
(-68,0,c),
(0,0,l)
);
}
);
width = 204;
}
);
},
{
export = 0;
glyphname = SerifUpLeft;
lastChange = "2022-11-18 02:42:45 +0000";
layers = (
{
layerId = m01;
shapes = (
{
closed = 1;
nodes = (
(-8,5,o),
(-39,25,o),
(-41,-15,c),
(-60,-15,l),
(-51,-12,o),
(-67,166,o),
(-77,165,c),
(-57,165,l),
(-57,123,o),
(-37,89,o),
(-22,67,c),
(0,38,l),
(0,0,l)
);
}
);
width = 4;
}
);
},
{
export = 0;
glyphname = SerifUpRight;
lastChange = "2022-11-18 17:00:56 +0000";
layers = (
{
layerId = m01;
shapes = (
{
closed = 1;
nodes = (
(113,0,l),
(113,25,o),
(111,86,o),
(111,191,c),
(84,191,l),
(84,111,o),
(50,42,o),
(0,42,c),
(0,0,l)
);
}
